<svg width="32" height="33" viewBox="0 0 32 33" fill="#FFFFFF" xmlns="http://www.w3.org/2000/svg">
<path d="M23.6386 19.7342L23.64 19.7334L21.7836 16.351L21.7818 16.352C21.7289 16.2508 21.6275 16.1812 21.5099 16.1812C21.3761 16.1812 21.2628 16.2703 21.2186 16.3947L19.4086 19.6922C19.3653 19.7486 19.3382 19.8193 19.3382 19.8974C19.3382 20.0789 19.4778 20.2255 19.6499 20.2255H20.1223C19.3351 21.1381 18.2732 21.782 17.0747 22.0134V15.9429H18.869C19.0412 15.9429 19.1809 15.7963 19.1809 15.6149L19.1807 15.6132V14.2012C19.1807 14.0201 19.0412 13.8731 18.869 13.8731H17.0747V12.7588C17.8465 12.3713 18.3813 11.5452 18.3813 10.5855C18.3813 9.25481 17.3557 8.17627 16.0909 8.17627C14.826 8.17627 13.8004 9.25481 13.8004 10.5855C13.8004 11.5454 14.335 12.3713 15.107 12.7588V13.8731H13.3127C13.1405 13.8731 13.0008 14.0199 13.0008 14.2008L13.0006 15.6151C13.0008 15.7966 13.1403 15.9429 13.3123 15.9429H15.1068V22.0134C13.9083 21.7822 12.8464 21.1381 12.0593 20.2255H12.5314C12.7037 20.2255 12.8433 20.0789 12.8433 19.8974C12.8433 19.8378 12.8269 19.7825 12.8004 19.7342L12.8018 19.7334L10.9454 16.351L10.9436 16.352C10.8906 16.2508 10.7892 16.1812 10.6714 16.1812C10.538 16.1812 10.4252 16.2699 10.3807 16.3936L8.56996 19.6927C8.52688 19.749 8.5 19.8195 8.5 19.8974C8.5 20.0789 8.63953 20.2255 8.81167 20.2255H9.64551C10.9199 22.584 13.3275 24.1763 16.0911 24.1763C18.8546 24.1763 21.2622 22.5842 22.5362 20.2257H23.3698C23.5422 20.2257 23.6815 20.0791 23.6815 19.8976C23.6815 19.838 23.6653 19.7827 23.6386 19.7342ZM16.0911 11.9422C15.3788 11.9422 14.8013 11.3346 14.8013 10.5859C14.8013 9.8367 15.3788 9.22904 16.0911 9.22904C16.8031 9.22904 17.3808 9.8367 17.3808 10.5859C17.3808 11.3344 16.8031 11.9422 16.0911 11.9422Z" fill="#FFFFFF"/>
</svg>
