<svg width="30" height="30" viewBox="0 0 30 30" fill="none" xmlns="http://www.w3.org/2000/svg">
<g clip-path="url(#clip0_233_2332)">
<path d="M22.1386 18.558L22.14 18.5571L20.2836 15.1747L20.2818 15.1758C20.2289 15.0745 20.1275 15.0049 20.0099 15.0049C19.8761 15.0049 19.7628 15.0941 19.7186 15.2184L17.9086 18.516C17.8653 18.5723 17.8382 18.643 17.8382 18.7212C17.8382 18.9027 17.9778 19.0492 18.1499 19.0492H18.6223C17.8351 19.9619 16.7732 20.6057 15.5747 20.8371V14.7666H17.369C17.5412 14.7666 17.6809 14.6201 17.6809 14.4386L17.6807 14.4369V13.0249C17.6807 12.8438 17.5412 12.6969 17.369 12.6969H15.5747V11.5826C16.3465 11.1951 16.8813 10.3689 16.8813 9.40926C16.8813 8.07854 15.8557 7 14.5909 7C13.326 7 12.3004 8.07854 12.3004 9.40926C12.3004 10.3691 12.835 11.1951 13.607 11.5826V12.6969H11.8127C11.6405 12.6969 11.5008 12.8436 11.5008 13.0245L11.5006 14.4388C11.5008 14.6203 11.6403 14.7666 11.8123 14.7666H13.6068V20.8371C12.4083 20.6059 11.3464 19.9619 10.5593 19.0492H11.0314C11.2037 19.0492 11.3433 18.9027 11.3433 18.7212C11.3433 18.6615 11.3269 18.6062 11.3004 18.558L11.3018 18.5571L9.44537 15.1747L9.44359 15.1758C9.39062 15.0745 9.28923 15.0049 9.17144 15.0049C9.03804 15.0049 8.92519 15.0937 8.88072 15.2174L7.06996 18.5164C7.02688 18.5727 7 18.6432 7 18.7212C7 18.9027 7.13953 19.0492 7.31167 19.0492H8.14551C9.41987 21.4078 11.8275 23 14.5911 23C17.3546 23 19.7622 21.408 21.0362 19.0494H21.8698C22.0422 19.0494 22.1815 18.9029 22.1815 18.7214C22.1815 18.6617 22.1653 18.6064 22.1386 18.558ZM14.5911 10.766C13.8788 10.766 13.3013 10.1583 13.3013 9.40968C13.3013 8.66043 13.8788 8.05277 14.5911 8.05277C15.3031 8.05277 15.8808 8.66043 15.8808 9.40968C15.8808 10.1581 15.3031 10.766 14.5911 10.766Z" fill="black"/>
</g>
<defs>
<clipPath id="clip0_233_2332">
<rect width="30" height="30" fill="white"/>
</clipPath>
</defs>
</svg>
