<svg width="530" height="175" viewBox="0 0 530 175" fill="none" xmlns="http://www.w3.org/2000/svg">
<path fill-rule="evenodd" clip-rule="evenodd" d="M208.309 51.3997L217.149 42.5579L238.536 42.5574L252.092 29L94.1884 29.0005L72.3815 51.3997H208.309ZM242.073 33.7156L95.9565 33.7161L82.9902 46.6841H206.541L214.792 37.8423L238.536 37.8418L242.073 33.7156Z" fill="#CF7AD1"/>
<path d="M72.3815 60.831L66.8647 55.5259L211.54 55.5259L220.381 46.6841H308.21L316.462 55.5259L480.608 55.5259L475.893 60.831H74.5266H72.3815Z" fill="#2DD8E3"/>
<path d="M68.4921 60.831L63.2464 55.5259H52.9944L58.4934 60.831H68.4921Z" fill="#2DD8E3"/>
<path d="M304.028 30.5L305.138 29.4911L304.692 29H304.028V30.5ZM319.026 47L317.916 48.0089L318.362 48.5H319.026V47ZM509 47C509 51.4183 512.582 55 517 55C521.418 55 525 51.4183 525 47C525 42.5817 521.418 39 517 39C512.582 39 509 42.5817 509 47ZM429.512 26L430.611 24.9794L430.166 24.5H429.512V26ZM271.032 32H304.028V29H271.032V32ZM302.918 31.5089L317.916 48.0089L320.136 45.9911L305.138 29.4911L302.918 31.5089ZM319.026 48.5H449.009V45.5H319.026V48.5ZM449.009 48.5H517V45.5H449.009V48.5ZM450.108 45.9794L430.611 24.9794L428.412 27.0206L447.91 48.0206L450.108 45.9794ZM429.512 24.5H413.514V27.5H429.512V24.5Z" fill="#CF7AD1"/>
<path d="M452.008 42.5L433.511 22.5V15H509.001V42.5H452.008Z" fill="#2ADFD3" fill-opacity="0.3" stroke="#CF7AD1"/>
<path d="M69.9917 48.5L88.4893 28.5V21H12.9991V48.5H69.9917Z" fill="#2ADFD3" fill-opacity="0.3" stroke="#CF7AD1"/>
</svg>
