<svg width="31" height="31" viewBox="0 0 31 31" fill="none" xmlns="http://www.w3.org/2000/svg">
<path d="M30.5 20.4897C15.6101 27.5416 4.39847 12.4371 9.95202 0.49707C4.39842 1.3301 -3.3765 12.7148 2.73241 23.5441C10.5073 34.6511 25.2241 31.5967 30.5 20.4897Z" fill="#545454"/>
<path d="M14.3946 4.66211L15.1427 6.96454H17.5636L15.6051 8.38752L16.3532 10.6899L14.3946 9.26697L12.436 10.6899L13.1841 8.38752L11.2256 6.96454H13.6465L14.3946 4.66211Z" fill="#545454"/>
<path d="M23.836 2.99609L24.5841 5.29852H27.005L25.0465 6.7215L25.7946 9.02393L23.836 7.60095L21.8774 9.02393L22.6256 6.7215L20.667 5.29852H23.0879L23.836 2.99609Z" fill="#545454"/>
<path d="M22.7247 12.9927L23.4728 15.2951H25.8937L23.9351 16.7181L24.6832 19.0205L22.7247 17.5975L20.7661 19.0205L21.5142 16.7181L19.5557 15.2951H21.9766L22.7247 12.9927Z" fill="#545454"/>
</svg>
