<svg width="30" height="30" viewBox="0 0 30 30" fill="none" xmlns="http://www.w3.org/2000/svg">
<g clip-path="url(#clip0_233_2353)">
<path d="M14.6054 7C10.4049 7 7 10.5816 7 15C7 19.4184 10.4049 23 14.6054 23C18.8058 23 22.2108 19.4184 22.2108 15C22.2108 10.5816 18.8058 7 14.6054 7ZM15.3659 19.8H13.8448V18.2H15.3659V19.8ZM15.3659 16.488V17.4H13.8448V15.8C13.8448 15.3584 14.1856 15 14.6054 15C15.4443 15 16.1265 14.2824 16.1265 13.4C16.1265 12.5176 15.4443 11.8 14.6054 11.8C13.7665 11.8 13.0843 12.5176 13.0843 13.4H11.5632C11.5632 11.632 12.9246 10.2 14.6054 10.2C16.2862 10.2 17.6475 11.632 17.6475 13.4C17.6475 14.8896 16.6756 16.1304 15.3659 16.488Z" fill="black"/>
</g>
<defs>
<clipPath id="clip0_233_2353">
<rect width="30" height="30" fill="white"/>
</clipPath>
</defs>
</svg>
