<svg width="32" height="32" viewBox="0 0 32 32" fill="none" xmlns="http://www.w3.org/2000/svg">
<path d="M15.6054 8C11.4049 8 8 11.5816 8 16C8 20.4184 11.4049 24 15.6054 24C19.8058 24 23.2108 20.4184 23.2108 16C23.2108 11.5816 19.8058 8 15.6054 8ZM16.3659 20.8H14.8448V19.2H16.3659V20.8ZM16.3659 17.488V18.4H14.8448V16.8C14.8448 16.3584 15.1856 16 15.6054 16C16.4443 16 17.1265 15.2824 17.1265 14.4C17.1265 13.5176 16.4443 12.8 15.6054 12.8C14.7665 12.8 14.0843 13.5176 14.0843 14.4H12.5632C12.5632 12.632 13.9246 11.2 15.6054 11.2C17.2862 11.2 18.6475 12.632 18.6475 14.4C18.6475 15.8896 17.6756 17.1304 16.3659 17.488Z" fill="white"/>
</svg>
