<svg width="39" height="39" viewBox="0 0 39 39" fill="none" xmlns="http://www.w3.org/2000/svg">
<g filter="url(#filter0_d_238_1769)">
<rect x="2.29102" y="0.0195312" width="34.3068" height="34.3068" rx="17.1534" fill="#2ADFD3" shape-rendering="crispEdges"/>
<path d="M20.5352 16.3096L15.569 16.3096" stroke="black" stroke-width="0.941945" stroke-linecap="round"/>
<path fill-rule="evenodd" clip-rule="evenodd" d="M7.18875 19.5859C7.18876 20.0911 7.59528 20.4976 8.40832 21.3107L15.3072 28.2096C16.1203 29.0226 16.5268 29.4291 17.0319 29.4291C17.5371 29.4291 17.9436 29.0226 18.7567 28.2096L27.259 19.7073C28.1627 18.8036 28.6145 18.3517 28.7917 17.7664C28.969 17.181 28.8437 16.5543 28.5931 15.3011L28.0181 12.4266C27.709 10.8808 27.5544 10.108 27.0322 9.58571C26.5099 9.06346 25.7371 8.90893 24.1913 8.59977L21.3168 8.02483C20.0636 7.77421 19.4369 7.64893 18.8515 7.82619C18.2662 8.00336 17.8143 8.45524 16.9106 9.35891L8.40832 17.8612C7.59528 18.6743 7.18876 19.0808 7.18875 19.5859ZM23.9309 16.1365C24.8834 15.1839 24.8834 13.6396 23.9309 12.687C22.9783 11.7345 21.434 11.7345 20.4814 12.687C19.5288 13.6396 19.5288 15.1839 20.4814 16.1365C21.434 17.0891 22.9783 17.0891 23.9309 16.1365Z" fill="black"/>
<path d="M23.9309 16.1365C24.8834 15.1839 24.8834 13.6396 23.9309 12.687C22.9783 11.7345 21.434 11.7345 20.4814 12.687C19.5288 13.6396 19.5288 15.1839 20.4814 16.1365C21.434 17.0891 22.9783 17.0891 23.9309 16.1365Z" fill="white"/>
</g>
<defs>
<filter id="filter0_d_238_1769" x="0.242849" y="0.0195312" width="38.403" height="38.403" filterUnits="userSpaceOnUse" color-interpolation-filters="sRGB">
<feFlood flood-opacity="0" result="BackgroundImageFix"/>
<feColorMatrix in="SourceAlpha" type="matrix" values="0 0 0 0 0 0 0 0 0 0 0 0 0 0 0 0 0 0 127 0" result="hardAlpha"/>
<feOffset dy="2.04817"/>
<feGaussianBlur stdDeviation="1.02408"/>
<feComposite in2="hardAlpha" operator="out"/>
<feColorMatrix type="matrix" values="0 0 0 0 0 0 0 0 0 0 0 0 0 0 0 0 0 0 0.25 0"/>
<feBlend mode="normal" in2="BackgroundImageFix" result="effect1_dropShadow_238_1769"/>
<feBlend mode="normal" in="SourceGraphic" in2="effect1_dropShadow_238_1769" result="shape"/>
</filter>
</defs>
</svg>
