<svg width="49" height="45" viewBox="0 0 49 45" fill="none" xmlns="http://www.w3.org/2000/svg">
<path d="M24.2849 15.6607C25.7216 14.312 26.1614 13.1099 25.3697 12.3182L23.4932 10.4711C22.4964 9.6208 21.5875 9.94332 20.2681 11.2627L11.003 20.4985C9.53698 22.0524 9.80086 23.3132 11.003 24.4567L20.8838 34.4547C21.6895 35.1326 22.7303 35.1584 23.5805 34.6311C23.581 34.6308 23.5814 34.6305 23.5818 34.6301L25.3399 32.872C25.3402 32.8716 25.3405 32.8713 25.3408 32.8709C26.1318 31.6983 25.4576 30.6724 25.0179 30.174L17.4585 22.5561C17.4557 22.5532 17.4557 22.5485 17.4585 22.5457L24.2849 15.6607Z" fill="black" stroke="white" stroke-width="0.11728"/>
<path d="M37.6316 15.6627C39.0682 14.3139 39.508 13.1118 38.7164 12.3202L36.8399 10.473C35.8431 9.62276 34.9341 9.94527 33.6147 11.2647L24.3497 20.5004C22.8837 22.0544 23.1475 23.3151 24.3497 24.4586L34.2305 34.4567C35.0362 35.1345 36.077 35.1604 36.9272 34.6331C36.9276 34.6328 36.9281 34.6324 36.9285 34.632L38.6866 32.8739C38.6869 32.8736 38.6872 32.8732 38.6875 32.8728C39.4785 31.7003 38.8043 30.6743 38.3646 30.176L30.8052 22.558C30.8023 22.5552 30.8023 22.5505 30.8052 22.5476L37.6316 15.6627Z" stroke="black" stroke-width="0.938236"/>
</svg>
