<svg width="40" height="39" viewBox="0 0 40 39" fill="none" xmlns="http://www.w3.org/2000/svg">
<g filter="url(#filter0_d_195_1102)">
<rect x="2.67773" y="0.180664" width="34.3068" height="34.3068" rx="17.1534" fill="#2ADFD3" shape-rendering="crispEdges"/>
<path d="M10.9245 20.4282V20.4282C10.6048 19.8746 10.7945 19.1667 11.3482 18.847L25.3825 10.7443C25.9361 10.4247 26.644 10.6144 26.9637 11.168V11.168M10.9245 20.4282L12.2594 22.7403C12.8213 23.7137 14.0659 24.0472 15.0392 23.4852V23.4852M10.9245 20.4282L26.9637 11.168M26.9637 11.168L28.1866 13.2861C28.8104 14.3666 28.4402 15.7482 27.3597 16.372V16.372M15.0392 23.4852L14.1991 22.03M15.0392 23.4852L17.1412 22.2717M17.1412 22.2717L15.5355 19.4907M17.1412 22.2717L19.2431 21.0581M19.2431 21.0581L18.4029 19.603M19.2431 21.0581L21.2641 19.8913M21.2641 19.8913L19.6585 17.1103M21.2641 19.8913L23.3499 18.6871M23.3499 18.6871L22.5097 17.2319M23.3499 18.6871L25.4033 17.5015M25.4033 17.5015L23.7977 14.7205M25.4033 17.5015L27.3597 16.372M27.3597 16.372L26.4169 14.739" stroke="black" stroke-width="0.768063" stroke-linecap="round"/>
</g>
<defs>
<filter id="filter0_d_195_1102" x="0.629568" y="0.180664" width="38.403" height="38.403" filterUnits="userSpaceOnUse" color-interpolation-filters="sRGB">
<feFlood flood-opacity="0" result="BackgroundImageFix"/>
<feColorMatrix in="SourceAlpha" type="matrix" values="0 0 0 0 0 0 0 0 0 0 0 0 0 0 0 0 0 0 127 0" result="hardAlpha"/>
<feOffset dy="2.04817"/>
<feGaussianBlur stdDeviation="1.02408"/>
<feComposite in2="hardAlpha" operator="out"/>
<feColorMatrix type="matrix" values="0 0 0 0 0 0 0 0 0 0 0 0 0 0 0 0 0 0 0.25 0"/>
<feBlend mode="normal" in2="BackgroundImageFix" result="effect1_dropShadow_195_1102"/>
<feBlend mode="normal" in="SourceGraphic" in2="effect1_dropShadow_195_1102" result="shape"/>
</filter>
</defs>
</svg>
