<svg width="519" height="87" viewBox="0 0 519 87" fill="none" xmlns="http://www.w3.org/2000/svg">
<path fill-rule="evenodd" clip-rule="evenodd" d="M217.5 37.4002L226.342 28.5584L247.731 28.5579L261.289 15.0005L87.1994 15.0006L65.3896 37.3999L217.5 37.4002ZM251.268 19.7161L88.9678 19.7162L75.9998 32.6842L215.731 32.6846L223.984 23.8428L247.731 23.8423L251.268 19.7161Z" fill="#CF7AD1"/>
<path d="M65.3896 46.8311L59.8722 41.526H222L230.842 32.6842L301.249 32.6842L309.502 41.526L473.669 41.526L468.953 46.8311H67.5351H65.3896Z" fill="#2DD8E3"/>
<path d="M61.4998 46.8311L56.2534 41.526H46L51.4998 46.8311H61.4998Z" fill="#2DD8E3"/>
<rect x="59.7887" y="64" width="27.9854" height="27.9854" transform="rotate(135 59.7887 64)" stroke="#CF7AD1" stroke-width="4.54153"/>
<rect x="49.1406" y="63.8447" width="12.9263" height="12.9263" transform="rotate(135 49.1406 63.8447)" fill="#2ADFD3"/>
<path d="M297.066 16.5L298.176 15.491L297.73 15H297.066V16.5ZM312.066 33L310.956 34.009L311.403 34.5H312.066V33ZM502.066 33C502.066 37.4183 505.648 41 510.066 41C514.485 41 518.066 37.4183 518.066 33C518.066 28.5817 514.485 25 510.066 25C505.648 25 502.066 28.5817 502.066 33ZM422.566 12L423.666 10.9793L423.221 10.5H422.566V12ZM246.5 18H297.066V15H246.5V18ZM295.956 17.509L310.956 34.009L313.176 31.991L298.176 15.491L295.956 17.509ZM312.066 34.5H442.066V31.5H312.066V34.5ZM442.066 34.5H510.066V31.5H442.066V34.5ZM443.166 31.9793L423.666 10.9793L421.467 13.0207L440.967 34.0207L443.166 31.9793ZM422.566 10.5H406.566V13.5H422.566V10.5Z" fill="#CF7AD1"/>
<path d="M306.066 17L329.56 17L338.566 27H315.032L306.066 17Z" fill="#2ADFD3"/>
<path d="M336.066 17L359.56 17L368.566 27H345.032L336.066 17Z" fill="#2ADFD3"/>
<path d="M366.066 17L389.56 17L398.566 27H375.032L366.066 17Z" fill="#2ADFD3"/>
<path d="M396.066 17L419.56 17L428.566 27H405.032L396.066 17Z" fill="#2ADFD3"/>
<path d="M445.066 28.5L426.566 8.5V1H502.066V28.5H445.066Z" fill="#2ADFD3" fill-opacity="0.3" stroke="#CF7AD1"/>
<path d="M63 34.5L81.5 14.5V7H6V34.5H63Z" fill="#2ADFD3" fill-opacity="0.3" stroke="#CF7AD1"/>
<path d="M219.5 22H190.868L184 30H212.5L219.5 22Z" fill="#2ADFD3"/>
<path d="M186.5 22H156L149 30H179.5L186.5 22Z" fill="#2ADFD3"/>
<path d="M151.5 22H121L114 30H144.5L151.5 22Z" fill="#2ADFD3"/>
<path d="M116.5 22H90.5L82 30H109.5L116.5 22Z" fill="#2ADFD3"/>
</svg>
