<svg width="151" height="151" viewBox="0 0 151 151" fill="none" xmlns="http://www.w3.org/2000/svg">
<path d="M101.456 100.456C108.207 93.7045 112 84.5478 112 75C112 65.4522 108.207 56.2955 101.456 49.5442C94.7045 42.7928 85.5478 39 76 39C66.4522 39 57.2955 42.7928 50.5442 49.5441L54.3625 53.3625C60.1012 47.6239 67.8844 44.4 76 44.4C84.1156 44.4 91.8989 47.6239 97.6375 53.3625C103.376 59.1011 106.6 66.8844 106.6 75C106.6 83.1156 103.376 90.8989 97.6375 96.6375L101.456 100.456Z" fill="#6B5B95"/>
<path d="M40.4631 69.2444C39.1064 77.6207 40.7522 86.207 45.1099 93.4879L49.7434 90.7147C46.0394 84.5259 44.6405 77.2276 45.7936 70.1078L40.4631 69.2444Z" fill="#6B5B95"/>
<path d="M54.8169 104.108C59.5274 107.536 64.9993 109.77 70.7631 110.617C76.5269 111.465 82.4102 110.901 87.908 108.974L86.1218 103.877C81.4487 105.515 76.4478 105.995 71.5486 105.275C66.6494 104.554 61.9983 102.656 57.9944 99.7418L54.8169 104.108Z" fill="#6B5B95"/>
<path d="M80.6573 19.437C67.6805 18.25 54.6935 21.5993 43.9093 28.9142C33.1251 36.229 25.2108 47.0569 21.515 59.5528C17.8192 72.0487 18.5705 85.4395 23.6409 97.4436C28.7113 109.448 37.7871 119.322 49.3218 125.385C60.8566 131.448 74.1367 133.323 86.8993 130.692C99.6619 128.061 111.117 121.086 119.314 110.956C127.51 100.825 131.941 88.1662 131.85 75.1355C131.759 62.1048 127.153 49.5087 118.817 39.4934L116.581 41.3544C124.487 50.8525 128.855 62.798 128.941 75.1557C129.027 87.5134 124.826 99.5186 117.052 109.126C109.279 118.733 98.4154 125.348 86.3119 127.843C74.2085 130.338 61.6143 128.559 50.6752 122.81C39.7362 117.06 31.1291 107.696 26.3206 96.3117C21.512 84.9276 20.7995 72.2283 24.3045 60.3778C27.8094 48.5273 35.315 38.2586 45.5422 31.3216C55.7695 24.3845 68.0857 21.2082 80.3923 22.3339L80.6573 19.437Z" fill="#EFEFEF"/>
<path d="M58.4475 118.183C67.4916 121.733 77.4264 122.334 86.8324 119.9C96.2385 117.465 104.634 112.12 110.821 104.628L108.986 103.113C103.119 110.218 95.1564 115.287 86.2361 117.596C77.3159 119.904 67.8942 119.334 59.3171 115.968L58.4475 118.183Z" fill="#EFEFEF"/>
<path d="M81.0976 121.002C87.101 120.239 92.8954 118.3 98.1499 115.298C103.404 112.295 108.016 108.287 111.721 103.502L109.84 102.045C106.326 106.583 101.952 110.384 96.969 113.231C91.986 116.079 86.4908 117.917 80.7974 118.641L81.0976 121.002Z" fill="#6B5B95"/>
<path d="M79.7248 29.6349C70.0493 28.7499 60.3416 30.9456 51.9886 35.9082C43.6357 40.8709 37.065 48.3466 33.2152 57.2673L35.4005 58.2104C39.0514 49.7504 45.2828 42.6608 53.2043 37.9544C61.1258 33.248 70.3322 31.1657 79.508 32.0051L79.7248 29.6349Z" fill="#EFEFEF"/>
<path d="M80.9749 29.7665C74.9656 29.051 68.8741 29.5263 63.0484 31.165C57.2227 32.8037 51.7768 35.5739 47.0217 39.3173L48.4939 41.1873C53.0034 37.6373 58.168 35.0102 63.6929 33.4561C69.2177 31.902 74.9946 31.4514 80.6936 32.1298L80.9749 29.7665Z" fill="#6B5B95"/>
<path d="M84.9146 19.9905C75.5452 18.4068 65.9275 19.2193 56.9566 22.3524L57.9032 25.0626C66.4168 22.0893 75.5443 21.3182 84.4361 22.8211L84.9146 19.9905Z" fill="#6B5B95"/>
<path d="M25.7719 101.925C31.9146 113.504 41.9029 122.577 54.0162 127.583C66.1295 132.589 79.6093 133.213 92.1336 129.349L91.2873 126.606C79.4013 130.273 66.6085 129.681 55.1126 124.93C43.6167 120.179 34.1375 111.568 28.3079 100.58L25.7719 101.925Z" fill="#6B5B95"/>
<path d="M130.808 86.3192C132.414 78.0966 132.164 69.6195 130.079 61.5054C127.993 53.3913 124.124 45.8447 118.753 39.4153L116.549 41.2558C121.647 47.3575 125.319 54.5195 127.298 62.22C129.278 69.9206 129.514 77.9656 127.991 85.7692L130.808 86.3192Z" fill="#6B5B95"/>
<g filter="url(#filter0_d_194_677)">
<path d="M90.08 90.5273C88.9082 90.2242 88.3339 90.2633 87.3864 90.5273L83.7232 92.6822C83.1108 93.1918 82.8171 93.52 82.6457 94.4061L81.5683 99.5777C81.3605 100.172 80.9306 100.252 79.9522 100.224L71.8714 100.224C71.169 100.257 70.8776 99.9609 70.5785 98.8235L69.8243 94.4061C69.6563 93.5925 69.4101 93.2087 68.7469 92.6822L65.0836 90.5273C64.1644 90.1368 63.5392 90.134 62.1746 90.5273L58.6191 91.7125C57.5082 92.2431 57.017 92.2037 56.4642 91.2815L52.37 84.4937C51.6709 83.2204 52.0046 82.7402 53.0165 82.0156L56.4642 79.1066C57.2618 78.4534 57.4674 77.9473 57.3262 76.7362L57.3262 73.7194C57.3423 72.6265 57.1981 72.1397 56.6797 71.4568L53.0165 68.1168C52.1149 67.3744 51.8836 66.859 52.5855 65.531L56.3565 59.0664C56.9554 57.9878 57.7012 58.1686 59.0501 58.5277L62.1746 59.6051C63.4835 60.2538 64.1559 60.1676 65.2991 59.6051L68.5314 57.6657C69.6256 56.9955 69.7797 56.2639 69.9321 54.8644L70.6863 50.9857C70.8723 50.0571 71.4771 49.9851 72.7334 50.016L79.8444 50.016C81.0599 49.9124 81.4034 50.3041 81.7838 51.3089L82.6457 55.8341C82.8504 57.0361 83.2341 57.2735 83.9386 57.6657L87.6019 59.6051C88.5846 60.2266 89.2247 60.0723 90.4032 59.6051L93.851 58.4199C95.1854 57.7666 95.6548 58.3612 96.4368 59.6051L100.1 65.7465C100.55 66.8486 100.428 67.4387 99.3459 68.44L96.4368 71.0259C95.4611 71.8345 95.2538 72.4199 95.2515 73.6117L95.2515 77.0595C95.2221 78.0216 95.4731 78.5278 96.4368 79.4298L99.5612 82.1234C100.534 82.9693 100.591 83.6738 99.5612 85.4634L96.2212 91.1738C95.6031 92.2396 95.0756 92.4301 93.7431 91.928L90.08 90.5273Z" fill="#494949"/>
</g>
<path d="M90.7146 74.4649C90.6059 72.561 90.1233 70.6972 89.2943 68.9799C88.4652 67.2626 87.3061 65.7253 85.883 64.456C84.4599 63.1867 82.8007 62.21 81.0002 61.5819C79.1996 60.9538 77.293 60.6864 75.3892 60.7952L75.6155 64.758C76.9989 64.679 78.3844 64.8732 79.6927 65.3297C81.0011 65.7861 82.2068 66.4958 83.2409 67.4181C84.275 68.3405 85.1173 69.4576 85.7197 70.7055C86.3221 71.9534 86.6728 73.3077 86.7518 74.6911L90.7146 74.4649Z" fill="#F2FF61"/>
<path d="M75.8581 60.7477C72.5661 60.8223 69.3972 62.0135 66.8713 64.1259C64.3453 66.2383 62.6123 69.1464 61.9566 72.3733C61.3008 75.6001 61.7612 78.954 63.2623 81.8848C64.7633 84.8156 67.2159 87.1492 70.2176 88.5027L71.8493 84.8844C69.6681 83.9008 67.8859 82.205 66.7951 80.0754C65.7044 77.9457 65.3698 75.5086 65.8463 73.1638C66.3228 70.8189 67.5821 68.7057 69.4176 67.1707C71.2531 65.6357 73.5558 64.7701 75.9479 64.716L75.8581 60.7477Z" fill="#6B5B95"/>
<path d="M70.1486 88.4862C72.4881 89.5623 75.0715 89.9969 77.6343 89.7456C80.197 89.4942 82.6469 88.5659 84.7326 87.0558C86.8184 85.5457 88.4651 83.5081 89.5039 81.1519C90.5428 78.7957 90.9364 76.2057 90.6444 73.6472L86.7007 74.0973C86.9129 75.9564 86.6269 77.8385 85.872 79.5506C85.1171 81.2628 83.9205 82.7434 82.4049 83.8407C80.8893 84.938 79.1091 85.6126 77.2468 85.7953C75.3846 85.9779 73.5073 85.6621 71.8073 84.8801L70.1486 88.4862Z" fill="#EFEFEF"/>
<g filter="url(#filter1_d_194_677)">
<ellipse cx="76.1332" cy="75.2123" rx="6.68005" ry="6.68005" fill="#F2FF61"/>
</g>
<defs>
<filter id="filter0_d_194_677" x="46.6748" y="50" width="58.9962" height="60.8795" filterUnits="userSpaceOnUse" color-interpolation-filters="sRGB">
<feFlood flood-opacity="0" result="BackgroundImageFix"/>
<feColorMatrix in="SourceAlpha" type="matrix" values="0 0 0 0 0 0 0 0 0 0 0 0 0 0 0 0 0 0 127 0" result="hardAlpha"/>
<feOffset dy="5.32523"/>
<feGaussianBlur stdDeviation="2.66262"/>
<feComposite in2="hardAlpha" operator="out"/>
<feColorMatrix type="matrix" values="0 0 0 0 0 0 0 0 0 0 0 0 0 0 0 0 0 0 0.25 0"/>
<feBlend mode="normal" in2="BackgroundImageFix" result="effect1_dropShadow_194_677"/>
<feBlend mode="normal" in="SourceGraphic" in2="effect1_dropShadow_194_677" result="shape"/>
</filter>
<filter id="filter1_d_194_677" x="64.1279" y="68.5322" width="24.0108" height="24.0108" filterUnits="userSpaceOnUse" color-interpolation-filters="sRGB">
<feFlood flood-opacity="0" result="BackgroundImageFix"/>
<feColorMatrix in="SourceAlpha" type="matrix" values="0 0 0 0 0 0 0 0 0 0 0 0 0 0 0 0 0 0 127 0" result="hardAlpha"/>
<feOffset dy="5.32523"/>
<feGaussianBlur stdDeviation="2.66262"/>
<feComposite in2="hardAlpha" operator="out"/>
<feColorMatrix type="matrix" values="0 0 0 0 0 0 0 0 0 0 0 0 0 0 0 0 0 0 0.25 0"/>
<feBlend mode="normal" in2="BackgroundImageFix" result="effect1_dropShadow_194_677"/>
<feBlend mode="normal" in="SourceGraphic" in2="effect1_dropShadow_194_677" result="shape"/>
</filter>
</defs>
</svg>
