<svg width="20" height="23" viewBox="0 0 20 23" fill="none" xmlns="http://www.w3.org/2000/svg">
<path d="M8.97229 22.536C1.40469 13.0737 0 12.1025 0 8.625C0 3.86153 4.47714 0 10 0C15.5229 0 20 3.86153 20 8.625C20 12.1025 18.5953 13.0737 11.0277 22.536C10.5311 23.1547 9.46885 23.1547 8.97229 22.536Z" fill="#EF567A"/>
<path d="M16 9.82255H13.4V11.0616H13.998C13.8569 11.9865 13.4061 12.8433 12.7127 13.5042C12.0193 14.1651 11.1204 14.5948 10.15 14.7292V9.20302H12.1V7.96395H10.15V6.6109C10.5837 6.46475 10.9492 6.17718 11.182 5.79901C11.4147 5.42084 11.4997 4.97642 11.4219 4.5443C11.3441 4.11218 11.1086 3.72018 10.7569 3.43759C10.4052 3.15499 9.96 3 9.5 3C9.04 3 8.59482 3.15499 8.24312 3.43759C7.89143 3.72018 7.65587 4.11218 7.57808 4.5443C7.5003 4.97642 7.58529 5.42084 7.81804 5.79901C8.05079 6.17718 8.41631 6.46475 8.85 6.6109V7.96395H6.9V9.20302H8.85V14.7292C7.87959 14.5948 6.98072 14.1651 6.28732 13.5042C5.59392 12.8433 5.14309 11.9865 5.002 11.0616H5.6V9.82255H3V11.0616H3.68835C3.85248 12.4211 4.53537 13.6755 5.60704 14.5861C6.6787 15.4968 8.06428 16 9.5 16C10.9357 16 12.3213 15.4968 13.393 14.5861C14.4646 13.6755 15.1475 12.4211 15.3116 11.0616H16V9.82255ZM9.5 4.24676C9.62856 4.24676 9.75423 4.2831 9.86112 4.35117C9.96801 4.41925 10.0513 4.51601 10.1005 4.62921C10.1497 4.74241 10.1626 4.86698 10.1375 4.98716C10.1124 5.10734 10.0505 5.21773 9.95962 5.30437C9.86872 5.39101 9.7529 5.45002 9.62681 5.47392C9.50072 5.49783 9.37003 5.48556 9.25126 5.43867C9.13248 5.39178 9.03097 5.31237 8.95954 5.21049C8.88812 5.10861 8.85 4.98883 8.85 4.86629C8.85 4.70198 8.91848 4.5444 9.04038 4.42822C9.16228 4.31203 9.32761 4.24676 9.5 4.24676Z" fill="white"/>
</svg>
