<svg width="39" height="39" viewBox="0 0 39 39" fill="none" xmlns="http://www.w3.org/2000/svg">
<g filter="url(#filter0_d_195_1105)">
<rect x="2.19043" y="0.273926" width="34.3068" height="34.3068" rx="17.1534" fill="#2ADFD3" shape-rendering="crispEdges"/>
<path d="M15.209 18.8719L14.9303 20.1739C14.8381 20.2213 14.7592 20.2875 14.6804 20.3537L13.4341 20.0394L12.8589 20.8966L13.554 22.0324C13.5228 22.1432 13.4978 22.2318 13.4764 22.3409L12.405 23.0509L12.5799 24.0752L13.8262 24.3895C13.8826 24.4853 13.9356 24.5606 14.0018 24.6547L13.723 25.9568L14.5501 26.5745L15.6215 25.8645C15.7161 25.8905 15.8125 25.9267 15.9169 25.9511L16.6119 27.0869L17.5857 26.9206L17.8644 25.6185C17.9451 25.5625 18.0355 25.5049 18.1144 25.4387L19.3606 25.753L19.9358 24.8958L19.2407 23.76C19.264 23.6611 19.2952 23.5504 19.3184 23.4516L20.3897 22.7415L20.2148 21.7172L18.9685 21.4029C18.9235 21.3157 18.8574 21.2216 18.7929 21.1377L19.0717 19.8357L18.2446 19.2179L17.1732 19.9279C17.0786 19.9019 16.9725 19.8674 16.8778 19.8413L16.1828 18.7056L15.209 18.8719ZM16.1332 21.3495C16.9415 21.2115 17.7111 21.7863 17.8563 22.6365C18.0015 23.4867 17.4662 24.2844 16.658 24.4224C15.8498 24.5605 15.0801 23.9856 14.9349 23.1354C14.7897 22.2852 15.325 21.4875 16.1332 21.3495Z" fill="black"/>
<path d="M19.8666 7.18457L19.0872 9.11673C18.9314 9.16543 18.7911 9.24662 18.6508 9.3278L16.7959 8.51597L15.6737 9.68501L16.453 11.6172C16.3751 11.7795 16.3127 11.9094 16.2504 12.0718L14.3955 12.8836V14.5073L16.2504 15.3191C16.3127 15.4815 16.3751 15.6114 16.453 15.7737L15.6737 17.7059L16.7959 18.8749L18.6508 18.0631C18.7911 18.128 18.9314 18.2092 19.0872 18.2742L19.8666 20.2063H21.4253L22.2047 18.2742C22.3449 18.2092 22.5008 18.1443 22.6411 18.0631L24.496 18.8749L25.6182 17.7059L24.8389 15.7737C24.9012 15.6276 24.9792 15.4652 25.0415 15.3191L26.8964 14.5073V12.8836L25.0415 12.0718C24.9948 11.9257 24.9168 11.7633 24.8389 11.6172L25.6182 9.68501L24.496 8.51597L22.6411 9.3278C22.5008 9.26285 22.3449 9.18167 22.2047 9.11673L21.4253 7.18457L19.8666 7.18457ZM20.6459 11.2437C21.9397 11.2437 22.984 12.3316 22.984 13.6792C22.984 15.0268 21.9397 16.1147 20.6459 16.1147C19.3522 16.1147 18.3079 15.0268 18.3079 13.6792C18.3079 12.3316 19.3522 11.2437 20.6459 11.2437Z" fill="black"/>
</g>
<defs>
<filter id="filter0_d_195_1105" x="0.142263" y="0.273926" width="38.403" height="38.403" filterUnits="userSpaceOnUse" color-interpolation-filters="sRGB">
<feFlood flood-opacity="0" result="BackgroundImageFix"/>
<feColorMatrix in="SourceAlpha" type="matrix" values="0 0 0 0 0 0 0 0 0 0 0 0 0 0 0 0 0 0 127 0" result="hardAlpha"/>
<feOffset dy="2.04817"/>
<feGaussianBlur stdDeviation="1.02408"/>
<feComposite in2="hardAlpha" operator="out"/>
<feColorMatrix type="matrix" values="0 0 0 0 0 0 0 0 0 0 0 0 0 0 0 0 0 0 0.25 0"/>
<feBlend mode="normal" in2="BackgroundImageFix" result="effect1_dropShadow_195_1105"/>
<feBlend mode="normal" in="SourceGraphic" in2="effect1_dropShadow_195_1105" result="shape"/>
</filter>
</defs>
</svg>
