<svg width="52" height="238" viewBox="0 0 52 238" fill="none" xmlns="http://www.w3.org/2000/svg">
<path fill-rule="evenodd" clip-rule="evenodd" d="M26.5 2C9.81463 34.1856 2.76269 54.6484 1 102.5L5.5 232.5C5.70379 235.182 7.65562 235.997 13.5 236.5C22.6332 237.279 28.2045 237.164 38.5 236.5C43.1648 236.401 45.8982 236.532 46.5 230L51.5 102.5C46.7093 32.0617 38.5036 27.1907 26.5 2ZM8 232.5C3.5 111 1.06271 56.5359 26.5 9.5C48.7143 46.0211 50 114 43.5 232.5C41 234.5 12.5 235.5 8 232.5Z" fill="#494949"/>
<path d="M26.5 9.5C1.06271 56.5359 3.5 111 8 232.5C12.5 235.5 41 234.5 43.5 232.5C50 114 48.7143 46.0211 26.5 9.5Z" fill="#494949"/>
<path fill-rule="evenodd" clip-rule="evenodd" d="M26.5 2C9.81463 34.1856 2.76269 54.6484 1 102.5L5.5 232.5C5.70379 235.182 7.65562 235.997 13.5 236.5C22.6332 237.279 28.2045 237.164 38.5 236.5C43.1648 236.401 45.8982 236.532 46.5 230L51.5 102.5C46.7093 32.0617 38.5036 27.1907 26.5 2ZM8 232.5C3.5 111 1.06271 56.5359 26.5 9.5C48.7143 46.0211 50 114 43.5 232.5C41 234.5 12.5 235.5 8 232.5Z" stroke="black"/>
<path d="M26.5 9.5C1.06271 56.5359 3.5 111 8 232.5C12.5 235.5 41 234.5 43.5 232.5C50 114 48.7143 46.0211 26.5 9.5Z" stroke="black"/>
<path fill-rule="evenodd" clip-rule="evenodd" d="M26.5 2C9.81463 34.1856 2.76269 54.6484 1 102.5L5.5 232.5C5.70379 235.182 7.65562 235.997 13.5 236.5C22.6332 237.279 28.2045 237.164 38.5 236.5C43.1648 236.401 45.8982 236.532 46.5 230L51.5 102.5C46.7093 32.0617 38.5036 27.1907 26.5 2ZM8 232.5C3.5 111 1.06271 56.5359 26.5 9.5C48.7143 46.0211 50 114 43.5 232.5C41 234.5 12.5 235.5 8 232.5Z" fill="#24FF3A"/>
<path d="M26.5 9.5C1.06271 56.5359 3.5 111 8 232.5C12.5 235.5 41 234.5 43.5 232.5C50 114 48.7143 46.0211 26.5 9.5Z" fill="#24FF3A"/>
<path fill-rule="evenodd" clip-rule="evenodd" d="M26.5 2C9.81463 34.1856 2.76269 54.6484 1 102.5L5.5 232.5C5.70379 235.182 7.65562 235.997 13.5 236.5C22.6332 237.279 28.2045 237.164 38.5 236.5C43.1648 236.401 45.8982 236.532 46.5 230L51.5 102.5C46.7093 32.0617 38.5036 27.1907 26.5 2ZM8 232.5C3.5 111 1.06271 56.5359 26.5 9.5C48.7143 46.0211 50 114 43.5 232.5C41 234.5 12.5 235.5 8 232.5Z" stroke="black"/>
<path d="M26.5 9.5C1.06271 56.5359 3.5 111 8 232.5C12.5 235.5 41 234.5 43.5 232.5C50 114 48.7143 46.0211 26.5 9.5Z" stroke="black"/>
<circle cx="15.5" cy="78.5151" r="4.5" fill="#1E1E1E"/>
<circle cx="15.5" cy="78.5151" r="2.5" fill="#747474"/>
<path d="M11.9997 72.566C11.9995 72.0002 12.5 71.5005 13.1575 72.0013L15.7877 77.3941L14.63 77.9588L11.9997 72.566Z" fill="#9F9F9F"/>
<circle cx="26.5" cy="78.5151" r="4.5" fill="#1E1E1E"/>
<circle cx="26.5" cy="78.5151" r="2.5" fill="#747474"/>
<circle cx="37.5" cy="78.5151" r="4.5" fill="#1E1E1E"/>
<circle cx="37.5" cy="78.5151" r="2.5" fill="#747474"/>
<path d="M22.9997 72.5655C22.9995 71.9997 23.5 71.5 24.1575 72.0008L26.7877 77.3936L25.63 77.9583L22.9997 72.5655Z" fill="#9F9F9F"/>
<path d="M33.9997 72.5655C33.9995 71.9997 34.5 71.5 35.1575 72.0008L37.7877 77.3936L36.63 77.9583L33.9997 72.5655Z" fill="#9F9F9F"/>
<rect x="19.5" y="45.5" width="14" height="14" stroke="black"/>
<rect x="11.5" y="171.5" width="28" height="28" stroke="#D9D9D9"/>
<line x1="26.5" y1="40" x2="26.5" y2="65" stroke="black"/>
<line x1="13.5" y1="52" x2="38.5" y2="52" stroke="black"/>
<path d="M10.2191 88.682C10.321 87.9983 10.9179 87.5 11.6438 87.5H41.1066C41.9035 87.5 42.5594 88.1203 42.6014 88.9131C44.1692 118.47 43.9925 150.699 42.7176 162.254C42.6387 162.968 42.0274 163.5 41.276 163.5H11.4688C10.7943 163.5 10.2687 163.093 10.1592 162.507C9.12334 156.964 8.57766 142.263 8.57423 127.026C8.57081 111.799 9.10876 96.1355 10.2191 88.682Z" fill="#1E1E1E" stroke="#D9D9D9"/>
<circle cx="19" cy="102" r="7" fill="#414141"/>
<circle cx="34.5" cy="101.5" r="4.5" fill="#747474"/>
<rect x="19.2803" y="97" width="8.3816" height="6.09753" rx="1" transform="rotate(60 19.2803 97)" fill="#747474"/>
<path d="M17.2188 99.0352L17.8774 100.142L10.6322 104.453C9.88715 104.308 9.86437 104.001 9.97348 103.346L17.2188 99.0352Z" fill="#9F9F9F"/>
<path d="M18.5264 101.328L19.195 102.429L12.0046 106.796C11.248 106.659 11.0431 106.458 11.336 105.695L18.5264 101.328Z" fill="#9F9F9F"/>
<path d="M19.9658 103.859L20.6798 104.932L13.7144 109.57C12.8531 109.557 12.664 109.355 13.0004 108.498L19.9658 103.859Z" fill="#9F9F9F"/>
<rect x="27" y="95" width="14" height="13" rx="1" fill="#414141"/>
<rect x="11" y="115" width="14" height="13" rx="1" fill="#414141"/>
<rect x="11" y="130" width="14" height="13" rx="1" fill="#414141"/>
<rect x="11" y="145" width="14" height="13" rx="1" fill="#414141"/>
<rect x="27" y="111" width="14" height="47" rx="1" fill="#414141"/>
<rect x="15" y="216" width="23" height="9" rx="1" fill="#747474"/>
<circle cx="34" cy="101" r="4" fill="#747474"/>
<circle cx="18" cy="121" r="4" fill="#747474"/>
<circle cx="18" cy="136" r="4" fill="#747474"/>
<circle cx="18" cy="151" r="4" fill="#747474"/>
<path d="M22 189.727V181H23.0568V184.886H27.7102V181H28.767V189.727H27.7102V185.824H23.0568V189.727H22Z" fill="#878787"/>
<path d="M36 185.5C36 191.299 31.299 196 25.5 196C19.701 196 15 191.299 15 185.5C15 179.701 19.701 175 25.5 175C31.299 175 36 179.701 36 185.5ZM15.8823 185.5C15.8823 190.812 20.1883 195.118 25.5 195.118C30.8117 195.118 35.1177 190.812 35.1177 185.5C35.1177 180.188 30.8117 175.882 25.5 175.882C20.1883 175.882 15.8823 180.188 15.8823 185.5Z" fill="#D9D9D9"/>
</svg>
