<svg width="39" height="39" viewBox="0 0 39 39" fill="none" xmlns="http://www.w3.org/2000/svg">
<g filter="url(#filter0_d_194_618)">
<rect x="2.34082" y="0.493652" width="34.3068" height="34.3068" rx="17.1534" fill="#6B5B95" shape-rendering="crispEdges"/>
<path d="M27.7844 23.7425C29.3838 24.5051 30.7867 22.404 29.2498 21.4259L24.7059 18.9741C22.5491 17.6859 20.926 20.0089 23.2658 21.3176L27.7844 23.7425Z" fill="white"/>
<path d="M23.9694 14.7142C24.9626 18.1969 22.7629 21.7767 19.0562 22.7099C15.3496 23.6431 11.5396 21.5763 10.5464 18.0936C9.55319 14.6109 11.7529 11.0311 15.4595 10.0979C19.1662 9.16472 22.9762 11.2315 23.9694 14.7142ZM12.4141 17.6234C13.1309 20.1369 15.8806 21.6286 18.5558 20.9551C21.2309 20.2816 22.8185 17.698 22.1017 15.1844C21.3849 12.6709 18.6351 11.1792 15.96 11.8527C13.2848 12.5262 11.6973 15.1099 12.4141 17.6234Z" fill="white"/>
<path d="M14.4971 16.4927L20.2081 16.4927" stroke="white" stroke-width="0.941161" stroke-linecap="round"/>
<path d="M17.3525 19.1753L17.3525 13.8093" stroke="white" stroke-width="0.941161" stroke-linecap="round"/>
</g>
<defs>
<filter id="filter0_d_194_618" x="0.292654" y="0.493652" width="38.403" height="38.403" filterUnits="userSpaceOnUse" color-interpolation-filters="sRGB">
<feFlood flood-opacity="0" result="BackgroundImageFix"/>
<feColorMatrix in="SourceAlpha" type="matrix" values="0 0 0 0 0 0 0 0 0 0 0 0 0 0 0 0 0 0 127 0" result="hardAlpha"/>
<feOffset dy="2.04817"/>
<feGaussianBlur stdDeviation="1.02408"/>
<feComposite in2="hardAlpha" operator="out"/>
<feColorMatrix type="matrix" values="0 0 0 0 0 0 0 0 0 0 0 0 0 0 0 0 0 0 0.25 0"/>
<feBlend mode="normal" in2="BackgroundImageFix" result="effect1_dropShadow_194_618"/>
<feBlend mode="normal" in="SourceGraphic" in2="effect1_dropShadow_194_618" result="shape"/>
</filter>
</defs>
</svg>
