<svg width="40" height="39" viewBox="0 0 40 39" fill="none" xmlns="http://www.w3.org/2000/svg">
<g filter="url(#filter0_d_195_1138)">
<rect x="2.76074" y="0.340332" width="34.3068" height="34.3068" rx="17.1534" fill="#2ADFD3" shape-rendering="crispEdges"/>
<path d="M20.5352 16.4438L15.569 16.4438" stroke="black" stroke-width="0.941945" stroke-linecap="round"/>
<path d="M27.1227 23.0437C28.5136 23.7381 29.7335 21.825 28.397 20.9344L24.4458 18.702C22.5703 17.5291 21.1589 19.6442 23.1936 20.8358L27.1227 23.0437Z" fill="black"/>
<path d="M23.8053 14.8239C24.6689 17.995 22.7561 21.2544 19.533 22.1041C16.3098 22.9538 12.9968 21.0719 12.1331 17.9009C11.2695 14.7298 13.1822 11.4704 16.4054 10.6207C19.6286 9.77101 22.9416 11.6529 23.8053 14.8239ZM13.7572 17.4728C14.3805 19.7614 16.7716 21.1195 19.0978 20.5063C21.424 19.8931 22.8045 17.5407 22.1812 15.252C21.5579 12.9634 19.1668 11.6053 16.8406 12.2185C14.5143 12.8317 13.1339 15.1841 13.7572 17.4728Z" fill="black"/>
</g>
<defs>
<filter id="filter0_d_195_1138" x="0.712575" y="0.340332" width="38.403" height="38.403" filterUnits="userSpaceOnUse" color-interpolation-filters="sRGB">
<feFlood flood-opacity="0" result="BackgroundImageFix"/>
<feColorMatrix in="SourceAlpha" type="matrix" values="0 0 0 0 0 0 0 0 0 0 0 0 0 0 0 0 0 0 127 0" result="hardAlpha"/>
<feOffset dy="2.04817"/>
<feGaussianBlur stdDeviation="1.02408"/>
<feComposite in2="hardAlpha" operator="out"/>
<feColorMatrix type="matrix" values="0 0 0 0 0 0 0 0 0 0 0 0 0 0 0 0 0 0 0.25 0"/>
<feBlend mode="normal" in2="BackgroundImageFix" result="effect1_dropShadow_195_1138"/>
<feBlend mode="normal" in="SourceGraphic" in2="effect1_dropShadow_195_1138" result="shape"/>
</filter>
</defs>
</svg>
