<svg width="58" height="238" viewBox="0 0 58 238" fill="none" xmlns="http://www.w3.org/2000/svg">
<path d="M28.7711 16.6647L19.743 32.525H38.2873L28.7711 16.6647Z" fill="#262626"/>
<path d="M12.4262 52.5333H22.4304V74.7376H12.4262V52.5333Z" fill="#262626"/>
<path d="M23.8944 52.5333H34.1426V74.7376H23.8944V63.6354V52.5333Z" fill="#262626"/>
<path d="M35.1186 52.5333H45.3667V74.7376H35.1186V52.5333Z" fill="#262626"/>
<path d="M29.9945 79.1297H45.8547V87.4258H29.9945V79.1297Z" fill="#747474"/>
<path d="M12.4262 79.1297H28.2865V87.4258H12.4262V79.1297Z" fill="#747474"/>
<path d="M12.4262 88.6458H28.2865V97.1859H12.4262V88.6458Z" fill="#262626"/>
<path d="M29.9945 88.6458H45.8547V97.1859H29.9945V88.6458Z" fill="#262626"/>
<path d="M29.9945 98.406H45.8547V107.19H29.9945V98.406Z" fill="#262626"/>
<path d="M12.4262 98.406H28.2865V107.19H12.4262V98.406Z" fill="#262626"/>
<path d="M12.4262 151.843H28.2865V160.627H12.4262V151.843Z" fill="#747474"/>
<path d="M29.9945 151.843H45.8547V160.627H29.9945V151.843Z" fill="#747474"/>
<path d="M29.9945 161.603H45.8547L46.0954 170.387H29.9945V161.603Z" fill="#262626"/>
<path d="M12.4262 161.603H28.2865V170.387H12.4262V161.603Z" fill="#262626"/>
<path d="M12.4262 171.363H28.2865V180.147H12.4262V171.363Z" fill="#747474"/>
<path d="M29.9945 171.363H46.0954L45.8547 180.147H29.9945V171.363Z" fill="#747474"/>
<path d="M12.4262 134.762H28.2865V143.547H12.4262V134.762Z" fill="#262626"/>
<path d="M29.9945 134.762H45.8547V143.547H29.9945V134.762Z" fill="#262626"/>
<path d="M29.9945 125.246H45.8547V133.542H29.9945V125.246Z" fill="#262626"/>
<path d="M12.4262 125.246H28.2865V133.542H12.4262V125.246Z" fill="#262626"/>
<path d="M12.4262 115.242H28.2865V124.27L12.4262 124.026V115.242Z" fill="#747474"/>
<path d="M29.9945 115.242H45.8547V124.27H29.9945V115.242Z" fill="#747474"/>
<path fill-rule="evenodd" clip-rule="evenodd" d="M21.207 7.3925C27.5964 -0.654173 31.0741 -1.59442 37.0672 7.3925C48.6364 23.6241 49.4053 33.4154 52.1955 48.3852V55.4613H53.4155V72.5416H52.1955V106.702H53.4155V124.026H52.1955V156.723C52.897 156.155 53.3016 155.957 54.1509 156.723C55.7608 158.658 56.5678 160.059 57.0789 165.507V174.535C57.1144 177.151 56.4599 178.004 54.3949 178.683H52.1955V196.251L45.6074 237H12.4229L5.83478 196.251V178.195C4.58822 178.767 3.85049 178.812 2.41873 178.195C0.226075 175.267 0.853983 162.25 2.41873 158.919C3.68166 156.209 4.41891 155.72 5.83478 156.967V124.27H4.61476V106.702H5.83478V72.5416H4.37076V55.4613H5.83478V48.3852C8.56014 30.311 10.5312 20.4567 21.207 7.3925ZM16.8149 234.804H14.6189L8.76282 196.251V48.3852C10.2702 33.3597 12.55 24.9269 21.695 9.83264H36.5792C44.8788 23.3692 47.8154 31.7618 49.2674 48.3852V196.251L43.4113 234.804H40.7273V233.34H32.4312V234.804H25.3551V233.34H16.8149V234.804Z" fill="#04A5FF"/>
<path fill-rule="evenodd" clip-rule="evenodd" d="M14.6189 234.804H16.8149V233.34H25.3551V234.804H32.4312V233.34H40.7273V234.804H43.4113L49.2674 196.251V48.3852C47.8154 31.7618 44.8788 23.3692 36.5792 9.83264H21.695C12.55 24.9269 10.2702 33.3597 8.76282 48.3852V196.251L14.6189 234.804ZM19.743 32.525L28.7711 16.6647L38.2873 32.525H19.743ZM47.5594 45.9452C32.9743 42.4989 24.9127 42.5972 10.7149 45.9452V196.739H47.8034L47.5594 45.9452ZM47.3154 199.179H11.4469L12.4229 206.012H46.0954L47.3154 199.179ZM40.7273 212.844H16.8149L18.767 228.46H39.0193L40.7273 212.844Z" fill="#04A5FF"/>
<path fill-rule="evenodd" clip-rule="evenodd" d="M10.7149 45.9452C24.9127 42.5972 32.9743 42.4989 47.5594 45.9452L47.8034 196.739H10.7149V45.9452ZM22.4304 52.5333H12.4262V74.7376H22.4304V52.5333ZM34.1426 52.5333H23.8944V63.6354V74.7376H34.1426V52.5333ZM45.3667 52.5333H35.1186V74.7376H45.3667V52.5333ZM28.2865 79.1297H12.4262V87.4258H28.2865V79.1297ZM45.8547 79.1297H29.9945V87.4258H45.8547V79.1297ZM28.2865 88.6458H12.4262V97.1859H28.2865V88.6458ZM45.8547 88.6458H29.9945V97.1859H45.8547V88.6458ZM28.2865 98.406H12.4262V107.19H28.2865V98.406ZM45.8547 98.406H29.9945V107.19H45.8547V98.406ZM28.2865 115.242H12.4262V124.026L28.2865 124.27V115.242ZM45.8547 115.242H29.9945V124.27H45.8547V115.242ZM28.2865 125.246H12.4262V133.542H28.2865V125.246ZM45.8547 125.246H29.9945V133.542H45.8547V125.246ZM28.2865 134.762H12.4262V143.547H28.2865V134.762ZM45.8547 134.762H29.9945V143.547H45.8547V134.762ZM28.2865 151.843H12.4262V160.627H28.2865V151.843ZM45.8547 151.843H29.9945V160.627H45.8547V151.843ZM28.2865 161.603H12.4262V170.387H28.2865V161.603ZM45.8547 161.603H29.9945V170.387H46.0954L45.8547 161.603ZM28.2865 171.363H12.4262V180.147H28.2865V171.363ZM46.0954 171.363H29.9945V180.147H45.8547L46.0954 171.363Z" fill="#04A5FF"/>
<path fill-rule="evenodd" clip-rule="evenodd" d="M16.8149 212.844H40.7273L39.0193 228.46H18.767L16.8149 212.844ZM20.963 221.872C20.4757 220.913 20.4339 220.329 20.963 219.188C25.1969 214.976 32.4312 214.064 36.8232 219.188C37.6598 220.164 37.3112 221.302 36.8232 221.872C33.8952 225.288 27.2768 227.312 20.963 221.872Z" fill="#747474"/>
<path d="M20.963 219.188C20.4339 220.329 20.4757 220.913 20.963 221.872C27.2768 227.312 33.8952 225.288 36.8232 221.872C37.3112 221.302 37.6598 220.164 36.8232 219.188C32.4312 214.064 25.1969 214.976 20.963 219.188Z" fill="#262626"/>
<path d="M11.4469 199.179H47.3154L46.0954 206.012H12.4229L11.4469 199.179Z" fill="#04A5FF"/>
<path d="M28.7711 16.6647L19.743 32.525H38.2873L28.7711 16.6647Z" stroke="black" stroke-width="0.488007"/>
<path d="M12.4262 52.5333H22.4304V74.7376H12.4262V52.5333Z" stroke="black" stroke-width="0.488007"/>
<path d="M23.8944 52.5333H34.1426V74.7376H23.8944V63.6354V52.5333Z" stroke="black" stroke-width="0.488007"/>
<path d="M35.1186 52.5333H45.3667V74.7376H35.1186V52.5333Z" stroke="black" stroke-width="0.488007"/>
<path d="M29.9945 79.1297H45.8547V87.4258H29.9945V79.1297Z" stroke="black" stroke-width="0.488007"/>
<path d="M12.4262 79.1297H28.2865V87.4258H12.4262V79.1297Z" stroke="black" stroke-width="0.488007"/>
<path d="M12.4262 88.6458H28.2865V97.1859H12.4262V88.6458Z" stroke="black" stroke-width="0.488007"/>
<path d="M29.9945 88.6458H45.8547V97.1859H29.9945V88.6458Z" stroke="black" stroke-width="0.488007"/>
<path d="M29.9945 98.406H45.8547V107.19H29.9945V98.406Z" stroke="black" stroke-width="0.488007"/>
<path d="M12.4262 98.406H28.2865V107.19H12.4262V98.406Z" stroke="black" stroke-width="0.488007"/>
<path d="M12.4262 151.843H28.2865V160.627H12.4262V151.843Z" stroke="black" stroke-width="0.488007"/>
<path d="M29.9945 151.843H45.8547V160.627H29.9945V151.843Z" stroke="black" stroke-width="0.488007"/>
<path d="M29.9945 161.603H45.8547L46.0954 170.387H29.9945V161.603Z" stroke="black" stroke-width="0.488007"/>
<path d="M12.4262 161.603H28.2865V170.387H12.4262V161.603Z" stroke="black" stroke-width="0.488007"/>
<path d="M12.4262 171.363H28.2865V180.147H12.4262V171.363Z" stroke="black" stroke-width="0.488007"/>
<path d="M29.9945 171.363H46.0954L45.8547 180.147H29.9945V171.363Z" stroke="black" stroke-width="0.488007"/>
<path d="M12.4262 134.762H28.2865V143.547H12.4262V134.762Z" stroke="black" stroke-width="0.488007"/>
<path d="M29.9945 134.762H45.8547V143.547H29.9945V134.762Z" stroke="black" stroke-width="0.488007"/>
<path d="M29.9945 125.246H45.8547V133.542H29.9945V125.246Z" stroke="black" stroke-width="0.488007"/>
<path d="M12.4262 125.246H28.2865V133.542H12.4262V125.246Z" stroke="black" stroke-width="0.488007"/>
<path d="M12.4262 115.242H28.2865V124.27L12.4262 124.026V115.242Z" stroke="black" stroke-width="0.488007"/>
<path d="M29.9945 115.242H45.8547V124.27H29.9945V115.242Z" stroke="black" stroke-width="0.488007"/>
<path fill-rule="evenodd" clip-rule="evenodd" d="M21.207 7.3925C27.5964 -0.654173 31.0741 -1.59442 37.0672 7.3925C48.6364 23.6241 49.4053 33.4154 52.1955 48.3852V55.4613H53.4155V72.5416H52.1955V106.702H53.4155V124.026H52.1955V156.723C52.897 156.155 53.3016 155.957 54.1509 156.723C55.7608 158.658 56.5678 160.059 57.0789 165.507V174.535C57.1144 177.151 56.4599 178.004 54.3949 178.683H52.1955V196.251L45.6074 237H12.4229L5.83478 196.251V178.195C4.58822 178.767 3.85049 178.812 2.41873 178.195C0.226075 175.267 0.853983 162.25 2.41873 158.919C3.68166 156.209 4.41891 155.72 5.83478 156.967V124.27H4.61476V106.702H5.83478V72.5416H4.37076V55.4613H5.83478V48.3852C8.56014 30.311 10.5312 20.4567 21.207 7.3925ZM16.8149 234.804H14.6189L8.76282 196.251V48.3852C10.2702 33.3597 12.55 24.9269 21.695 9.83264H36.5792C44.8788 23.3692 47.8154 31.7618 49.2674 48.3852V196.251L43.4113 234.804H40.7273V233.34H32.4312V234.804H25.3551V233.34H16.8149V234.804Z" stroke="black" stroke-width="0.488007"/>
<path fill-rule="evenodd" clip-rule="evenodd" d="M14.6189 234.804H16.8149V233.34H25.3551V234.804H32.4312V233.34H40.7273V234.804H43.4113L49.2674 196.251V48.3852C47.8154 31.7618 44.8788 23.3692 36.5792 9.83264H21.695C12.55 24.9269 10.2702 33.3597 8.76282 48.3852V196.251L14.6189 234.804ZM19.743 32.525L28.7711 16.6647L38.2873 32.525H19.743ZM47.5594 45.9452C32.9743 42.4989 24.9127 42.5972 10.7149 45.9452V196.739H47.8034L47.5594 45.9452ZM47.3154 199.179H11.4469L12.4229 206.012H46.0954L47.3154 199.179ZM40.7273 212.844H16.8149L18.767 228.46H39.0193L40.7273 212.844Z" stroke="black" stroke-width="0.488007"/>
<path fill-rule="evenodd" clip-rule="evenodd" d="M10.7149 45.9452C24.9127 42.5972 32.9743 42.4989 47.5594 45.9452L47.8034 196.739H10.7149V45.9452ZM22.4304 52.5333H12.4262V74.7376H22.4304V52.5333ZM34.1426 52.5333H23.8944V63.6354V74.7376H34.1426V52.5333ZM45.3667 52.5333H35.1186V74.7376H45.3667V52.5333ZM28.2865 79.1297H12.4262V87.4258H28.2865V79.1297ZM45.8547 79.1297H29.9945V87.4258H45.8547V79.1297ZM28.2865 88.6458H12.4262V97.1859H28.2865V88.6458ZM45.8547 88.6458H29.9945V97.1859H45.8547V88.6458ZM28.2865 98.406H12.4262V107.19H28.2865V98.406ZM45.8547 98.406H29.9945V107.19H45.8547V98.406ZM28.2865 115.242H12.4262V124.026L28.2865 124.27V115.242ZM45.8547 115.242H29.9945V124.27H45.8547V115.242ZM28.2865 125.246H12.4262V133.542H28.2865V125.246ZM45.8547 125.246H29.9945V133.542H45.8547V125.246ZM28.2865 134.762H12.4262V143.547H28.2865V134.762ZM45.8547 134.762H29.9945V143.547H45.8547V134.762ZM28.2865 151.843H12.4262V160.627H28.2865V151.843ZM45.8547 151.843H29.9945V160.627H45.8547V151.843ZM28.2865 161.603H12.4262V170.387H28.2865V161.603ZM45.8547 161.603H29.9945V170.387H46.0954L45.8547 161.603ZM28.2865 171.363H12.4262V180.147H28.2865V171.363ZM46.0954 171.363H29.9945V180.147H45.8547L46.0954 171.363Z" stroke="black" stroke-width="0.488007"/>
<path fill-rule="evenodd" clip-rule="evenodd" d="M16.8149 212.844H40.7273L39.0193 228.46H18.767L16.8149 212.844ZM20.963 221.872C20.4757 220.913 20.4339 220.329 20.963 219.188C25.1969 214.976 32.4312 214.064 36.8232 219.188C37.6598 220.164 37.3112 221.302 36.8232 221.872C33.8952 225.288 27.2768 227.312 20.963 221.872Z" stroke="black" stroke-width="0.488007"/>
<path d="M20.963 219.188C20.4339 220.329 20.4757 220.913 20.963 221.872C27.2768 227.312 33.8952 225.288 36.8232 221.872C37.3112 221.302 37.6598 220.164 36.8232 219.188C32.4312 214.064 25.1969 214.976 20.963 219.188Z" stroke="black" stroke-width="0.488007"/>
<path d="M11.4469 199.179H47.3154L46.0954 206.012H12.4229L11.4469 199.179Z" stroke="black" stroke-width="0.488007"/>
</svg>
