<svg width="166" height="80" viewBox="0 0 166 80" fill="none" xmlns="http://www.w3.org/2000/svg">
<path d="M5 30L5 50C5 63.8071 16.1929 75 30 75L135 75C148.807 75 160 63.8071 160 50L160 30C160 16.1929 148.807 5 135 5L30 5.00001C16.1929 5.00001 5 16.1929 5 30Z" fill="url(#paint0_linear_207_1898)"/>
<path d="M5 30L5 50C5 63.8071 16.1929 75 30 75L135 75C148.807 75 160 63.8071 160 50L160 30C160 16.1929 148.807 5 135 5L30 5.00001C16.1929 5.00001 5 16.1929 5 30Z" fill="url(#paint1_linear_207_1898)"/>
<path d="M5 30L5 50C5 63.8071 16.1929 75 30 75L135 75C148.807 75 160 63.8071 160 50L160 30C160 16.1929 148.807 5 135 5L30 5.00001C16.1929 5.00001 5 16.1929 5 30Z" stroke="#6B5B95" stroke-width="2"/>
<path d="M0.999997 26L0.999999 54C0.999999 67.8071 12.1929 79 26 79L140 79C153.807 79 165 67.8071 165 54L165 26C165 12.1929 153.807 1 140 1L26 1.00001C12.1929 1.00001 0.999997 12.1929 0.999997 26Z" stroke="url(#paint2_linear_207_1898)" stroke-width="2"/>
<path d="M0.999997 26L0.999999 54C0.999999 67.8071 12.1929 79 26 79L140 79C153.807 79 165 67.8071 165 54L165 26C165 12.1929 153.807 1 140 1L26 1.00001C12.1929 1.00001 0.999997 12.1929 0.999997 26Z" stroke="url(#paint3_linear_207_1898)" stroke-width="2"/>
<defs>
<linearGradient id="paint0_linear_207_1898" x1="12" y1="-17" x2="82" y2="165" gradientUnits="userSpaceOnUse">
<stop stop-color="#6B5B95"/>
<stop offset="1" stop-color="#D9D9D9" stop-opacity="0"/>
</linearGradient>
<linearGradient id="paint1_linear_207_1898" x1="149" y1="134.5" x2="66" y2="40" gradientUnits="userSpaceOnUse">
<stop offset="0.444873" stop-color="#6B5B95"/>
<stop offset="1" stop-color="white" stop-opacity="0"/>
</linearGradient>
<linearGradient id="paint2_linear_207_1898" x1="86.5" y1="52.5" x2="135.5" y2="79" gradientUnits="userSpaceOnUse">
<stop stop-color="#6B5B95" stop-opacity="0"/>
<stop offset="1" stop-color="#F2FF61"/>
</linearGradient>
<linearGradient id="paint3_linear_207_1898" x1="116.5" y1="62.5" x2="27" y2="-5.5" gradientUnits="userSpaceOnUse">
<stop stop-color="#6B5B95" stop-opacity="0"/>
<stop offset="1" stop-color="#F2FF61"/>
</linearGradient>
</defs>
</svg>
