<svg width="45" height="48" viewBox="0 0 45 48" fill="none" xmlns="http://www.w3.org/2000/svg">
<path d="M0 15C0 6.71573 6.71573 0 15 0H30C38.2843 0 45 6.71573 45 15V33C45 41.2843 38.2843 48 30 48H15C6.71573 48 0 41.2843 0 33V15Z" fill="#030303"/>
<path d="M37 28.9926C22.1101 36.0445 10.8985 20.94 16.452 9C10.8984 9.83303 3.1235 21.2177 9.23241 32.0471C17.0073 43.1541 31.7241 40.0996 37 28.9926Z" fill="#2ADFD3"/>
<path d="M24.3321 10.666L25.0802 12.9684H27.5011L25.5426 14.3914L26.2907 16.6939L24.3321 15.2709L22.3735 16.6939L23.1216 14.3914L21.1631 12.9684H23.584L24.3321 10.666Z" fill="#2ADFD3"/>
<path d="M33.7735 9L34.5216 11.3024H36.9425L34.984 12.7254L35.7321 15.0278L33.7735 13.6049L31.8149 15.0278L32.5631 12.7254L30.6045 11.3024H33.0254L33.7735 9Z" fill="#2ADFD3"/>
<path d="M32.6622 18.9961L33.4103 21.2985H35.8312L33.8726 22.7215L34.6207 25.0239L32.6622 23.601L30.7036 25.0239L31.4517 22.7215L29.4932 21.2985H31.9141L32.6622 18.9961Z" fill="#2ADFD3"/>
</svg>
