<svg width="30" height="30" viewBox="0 0 30 30" fill="none" xmlns="http://www.w3.org/2000/svg">
<g clip-path="url(#clip0_169_54)">
<path d="M15 22.9468C14.7395 22.9464 14.4851 22.8636 14.2699 22.7091C11.082 20.4328 9.7017 18.872 8.94033 17.8962C7.31782 15.8162 6.54105 13.6807 6.56295 11.3681C6.5885 8.71806 8.60975 6.5625 11.0687 6.5625C12.8567 6.5625 14.095 7.62193 14.8163 8.50429C14.8391 8.53196 14.8673 8.55415 14.899 8.56936C14.9307 8.58456 14.9652 8.59243 15 8.59243C15.0348 8.59243 15.0693 8.58456 15.101 8.56936C15.1327 8.55415 15.1609 8.53196 15.1837 8.50429C15.905 7.62108 17.1433 6.5625 18.9313 6.5625C21.3903 6.5625 23.4115 8.71806 23.4371 11.3686C23.459 13.6816 22.6814 15.8171 21.0597 17.8967C20.2983 18.8725 18.918 20.4332 15.7301 22.7096C15.5149 22.8639 15.2605 22.9466 15 22.9468Z" fill="#F2FF61"/>
</g>
<defs>
<clipPath id="clip0_169_54">
<rect width="30" height="30" fill="white"/>
</clipPath>
</defs>
</svg>
