<svg width="59" height="238" viewBox="0 0 59 238" fill="none" xmlns="http://www.w3.org/2000/svg">
<path d="M45.6582 220.416V218.933C45.5994 218.56 45.4222 218.301 45.1899 218.142C44.7759 217.857 44.1868 217.887 43.7803 218.142C43.5072 218.313 43.3165 218.585 43.3165 218.933V220.252V223.714C43.3165 224.373 43.6255 224.792 44.019 224.973C44.2614 225.084 44.5359 225.104 44.79 225.033C45.2589 224.903 45.6582 224.463 45.6582 223.714V220.416Z" fill="black"/>
<path d="M12.8734 220.416V223.879C12.8734 224.944 13.6804 225.383 14.347 225.198C14.8158 225.068 15.2152 224.628 15.2152 223.879V219.097C15.1563 218.724 14.9792 218.466 14.7468 218.307C14.0548 217.831 12.8734 218.233 12.8734 219.097V220.416Z" fill="black"/>
<path fill-rule="evenodd" clip-rule="evenodd" d="M23.1772 4.09165C16.198 13.8476 14.4936 20.0874 13.1076 31.7918V37.0679H12.1709V57.6781L12.8734 58.3376V87.0271L12.4051 87.8515V107.967L13.1076 108.627V153.804L12.4051 154.464V174.579L13.1076 175.404C13.7427 190.304 14.8459 198.701 19.1962 213.821C18.7826 215.028 16.2623 214.791 12.8734 214.81V212.997C12.2386 212.342 11.6832 212.261 11 212.997V220.416H12.8734V219.097C12.8734 218.233 14.0548 217.831 14.7468 218.307C17.6536 217.791 19.1422 217.214 21.7722 216.13C23.1017 215.805 23.855 215.833 25.519 224.868C24.5958 224.858 23.7576 224.854 22.943 224.857L24.3481 227.506H19.1962C17.8792 229.449 18.1396 231.301 19.6646 235.421H28.3291H30.6709H39.3354C40.9036 230.452 41.0854 228.63 39.8038 227.506H34.6519L36.2911 224.868L34.1835 225.198C34.2706 216.989 35.2126 216.46 36.9937 215.965C39.7583 217.16 41.2725 217.721 43.7803 218.142C44.1868 217.887 44.7759 217.857 45.1899 218.142C45.4222 218.301 45.5994 218.56 45.6582 218.933V220.416H48V213.162C47.7658 212.172 46.3608 212.337 46.1266 213.162V214.81C42.723 214.89 40.8866 214.904 39.8038 213.986C44.9918 198.268 45.5006 189.956 45.8924 175.239L46.5949 174.579V154.464L45.8924 153.969V108.791L46.5949 107.967V87.8515L45.8924 87.192V58.0079L46.5949 57.3484V37.3977L45.8924 36.5733L45.6582 31.7918C43.934 15.2534 40.9117 10.8977 35.1203 4.09165C31.8418 -0.0305277 26.4557 -0.0305716 23.1772 4.09165ZM30.9051 10.357H28.0949V21.569H30.9051V10.357Z" fill="#24FF3A"/>
<path d="M28.0949 10.357H30.9051V21.569H28.0949V10.357Z" fill="black"/>
<path d="M15.2152 219.097V223.879C15.2152 224.628 14.8158 225.068 14.347 225.198C18.1677 224.952 20.4437 224.867 22.943 224.857C23.7576 224.854 24.5958 224.858 25.519 224.868C23.855 215.833 23.1017 215.805 21.7722 216.13C19.1422 217.214 17.6536 217.791 14.7468 218.307C14.9792 218.466 15.1563 218.724 15.2152 219.097Z" fill="#24FF3A"/>
<path d="M36.9937 215.965C35.2126 216.46 34.2706 216.989 34.1835 225.198L36.2911 224.868C39.0262 224.85 40.0898 224.741 44.019 224.973C43.6255 224.792 43.3165 224.373 43.3165 223.714V220.252V218.933C43.3165 218.585 43.5072 218.313 43.7803 218.142C41.2725 217.721 39.7583 217.16 36.9937 215.965Z" fill="#24FF3A"/>
<path d="M12.8734 220.416H11V212.997C11.6832 212.261 12.2386 212.342 12.8734 212.997V214.81C16.2623 214.791 18.7826 215.028 19.1962 213.821C14.8459 198.701 13.7427 190.304 13.1076 175.404L12.4051 174.579V154.464L13.1076 153.804V108.627L12.4051 107.967V87.8515L12.8734 87.0271V58.3376L12.1709 57.6781V37.0679H13.1076V31.7918C14.4936 20.0874 16.198 13.8476 23.1772 4.09165C26.4557 -0.0305716 31.8418 -0.0305277 35.1203 4.09165C40.9117 10.8977 43.934 15.2534 45.6582 31.7918L45.8924 36.5733L46.5949 37.3977V57.3484L45.8924 58.0079V87.192L46.5949 87.8515V107.967L45.8924 108.791V153.969L46.5949 154.464V174.579L45.8924 175.239C45.5006 189.956 44.9918 198.268 39.8038 213.986C40.8866 214.904 42.723 214.89 46.1266 214.81V213.162C46.3608 212.337 47.7658 212.172 48 213.162V220.416H45.6582M12.8734 220.416V223.879C12.8734 224.944 13.6804 225.383 14.347 225.198M12.8734 220.416V219.097C12.8734 218.233 14.0548 217.831 14.7468 218.307M14.7468 218.307C14.9792 218.466 15.1563 218.724 15.2152 219.097V223.879C15.2152 224.628 14.8158 225.068 14.347 225.198M14.7468 218.307C17.6536 217.791 19.1422 217.214 21.7722 216.13C23.1017 215.805 23.855 215.833 25.519 224.868C24.5958 224.858 23.7576 224.854 22.943 224.857M14.347 225.198C18.1677 224.952 20.4437 224.867 22.943 224.857M22.943 224.857L24.3481 227.506H19.1962C17.8792 229.449 18.1396 231.301 19.6646 235.421H28.3291M36.2911 224.868L34.6519 227.506H39.8038C41.0854 228.63 40.9036 230.452 39.3354 235.421H30.6709M36.2911 224.868L34.1835 225.198C34.2706 216.989 35.2126 216.46 36.9937 215.965C39.7583 217.16 41.2725 217.721 43.7803 218.142M36.2911 224.868C39.0262 224.85 40.0898 224.741 44.019 224.973M28.3291 235.421L28.7975 236.575C29.375 237.116 29.6819 237.167 30.2025 236.575L30.6709 235.421M28.3291 235.421H30.6709M45.6582 218.933V220.416M45.6582 218.933V223.714M45.6582 218.933C45.5994 218.56 45.4222 218.301 45.1899 218.142C44.7759 217.857 44.1868 217.887 43.7803 218.142M45.6582 220.416V223.714M45.6582 223.714C45.6582 224.463 45.2589 224.903 44.79 225.033C44.5359 225.104 44.2614 225.084 44.019 224.973M44.019 224.973C43.6255 224.792 43.3165 224.373 43.3165 223.714V220.252V218.933C43.3165 218.585 43.5072 218.313 43.7803 218.142M28.0949 10.357H30.9051V21.569H28.0949V10.357Z" stroke="black"/>
<path d="M1 89.1837V92.0508C3.84931 91.9079 6.395 91.7824 8.6456 91.6841V88.8313C6.31963 88.9394 3.76868 89.0362 1 89.1837Z" fill="white"/>
<path d="M57.8641 92.0508V89.1837C54.8566 89.1103 52.2837 89.0354 49.9795 88.9096V91.6841C52.3927 91.7968 55.0454 91.9312 57.8641 92.0508Z" fill="white"/>
<path d="M24.4146 79.1488V83.9273H33.9716V79.1488H24.4146Z" fill="black"/>
<path fill-rule="evenodd" clip-rule="evenodd" d="M27.2827 138.402C28.6779 140.482 29.4143 140.582 30.6267 138.402C35.8813 122.277 37.1638 108.069 36.9516 92.0508C36.9287 90.3214 36.8883 88.5708 36.8337 86.7944C36.743 83.8463 36.6129 80.827 36.4576 77.7153C33.9716 70.0697 25.3703 69.114 22.1629 77.7153C22.0195 80.8352 21.9121 83.8524 21.8485 86.7944C21.8101 88.572 21.7876 90.3221 21.7828 92.0508C21.7391 107.747 23.1509 121.681 27.2827 138.402ZM24.4146 83.9273V79.1488H33.9716V83.9273H24.4146Z" fill="#716A6A"/>
<path d="M21.7828 92.0508C21.7876 90.3221 21.8101 88.572 21.8485 86.7944C18.961 88.2128 14.5211 88.5582 8.6456 88.8313V91.6841C16.4872 91.3416 20.7463 91.3282 21.7828 92.0508Z" fill="#313131"/>
<path d="M36.8337 86.7944C36.8883 88.5708 36.9287 90.3214 36.9516 92.0508C38.3421 91.2237 43.2218 91.3687 49.9795 91.6841V88.9096C44.8798 88.6312 41.0969 88.1039 36.8337 86.7944Z" fill="#313131"/>
<path d="M23.9378 50C23.1861 60.3207 22.5459 69.3843 22.1629 77.7153M34.9274 50C35.4334 60.1988 36.0376 69.2957 36.4576 77.7153M22.1629 77.7153C25.3703 69.114 33.9716 70.0697 36.4576 77.7153M22.1629 77.7153C22.0195 80.8352 21.9121 83.8524 21.8485 86.7944M36.4576 77.7153C36.6129 80.827 36.743 83.8463 36.8337 86.7944M36.8337 86.7944C36.8883 88.5708 36.9287 90.3213 36.9516 92.0508M36.8337 86.7944C41.0969 88.1039 44.8798 88.6312 49.9795 88.9096M36.9516 92.0508C37.1638 108.069 35.8813 122.277 30.6267 138.402C29.4143 140.582 28.6779 140.482 27.2827 138.402C23.1509 121.681 21.7391 107.747 21.7828 92.0508M36.9516 92.0508C38.3421 91.2237 43.2218 91.3687 49.9795 91.6841M21.8485 86.7944C21.8101 88.572 21.7876 90.3221 21.7828 92.0508M21.8485 86.7944C18.961 88.2128 14.5211 88.5582 8.6456 88.8313M21.7828 92.0508C20.7463 91.3282 16.4872 91.3416 8.6456 91.6841M8.6456 91.6841C6.395 91.7824 3.84931 91.9079 1 92.0508V89.1837C3.76868 89.0362 6.31963 88.9394 8.6456 88.8313M8.6456 91.6841V88.8313M49.9795 91.6841C52.3927 91.7968 55.0454 91.9312 57.8641 92.0508V89.1837C54.8566 89.1103 52.2837 89.0354 49.9795 88.9096M49.9795 91.6841V88.9096M24.4146 79.1488V83.9273H33.9716V79.1488H24.4146Z" stroke="black" stroke-width="0.9557"/>
</svg>
