<svg width="32" height="32" viewBox="0 0 32 32" fill="none" xmlns="http://www.w3.org/2000/svg">
<path d="M22.777 19.3062L19.4496 17.8061C19.3074 17.7424 19.1494 17.729 18.9994 17.7679C18.8494 17.8068 18.7154 17.8959 18.6177 18.0218L17.1441 19.9156C14.8315 18.7686 12.9704 16.8109 11.88 14.3783L13.6804 12.8282C13.8003 12.7256 13.8852 12.5847 13.9222 12.4268C13.9592 12.269 13.9462 12.1027 13.8854 11.9532L12.4593 8.45316C12.3925 8.29204 12.2744 8.16048 12.1252 8.08119C11.9761 8.00189 11.8053 7.97982 11.6423 8.01878L8.55259 8.76879C8.39548 8.80696 8.2553 8.90001 8.15494 9.03276C8.05458 9.16552 7.99996 9.33013 8 9.49974C8 17.5155 14.1765 24 21.785 24C21.9463 24.0001 22.1029 23.9427 22.2291 23.8371C22.3554 23.7315 22.4439 23.5841 22.4802 23.4187L23.1932 20.1687C23.23 19.9964 23.2086 19.8161 23.1326 19.6587C23.0566 19.5012 22.9309 19.3766 22.777 19.3062Z" fill="white"/>
</svg>
