<svg width="30" height="30" viewBox="0 0 30 30" fill="none" xmlns="http://www.w3.org/2000/svg">
<g clip-path="url(#clip0_233_2346)">
<path d="M21.777 18.3062L18.4496 16.8061C18.3074 16.7424 18.1494 16.729 17.9994 16.7679C17.8494 16.8068 17.7154 16.8959 17.6177 17.0218L16.1441 18.9156C13.8315 17.7686 11.9704 15.8109 10.88 13.3783L12.6804 11.8282C12.8003 11.7256 12.8852 11.5847 12.9222 11.4268C12.9592 11.269 12.9462 11.1027 12.8854 10.9532L11.4593 7.45316C11.3925 7.29204 11.2744 7.16048 11.1252 7.08119C10.9761 7.00189 10.8053 6.97982 10.6423 7.01878L7.55259 7.76879C7.39548 7.80696 7.2553 7.90001 7.15494 8.03276C7.05458 8.16552 6.99996 8.33013 7 8.49974C7 16.5155 13.1765 23 20.785 23C20.9463 23.0001 21.1029 22.9427 21.2291 22.8371C21.3554 22.7315 21.4439 22.5841 21.4802 22.4187L22.1932 19.1687C22.23 18.9964 22.2086 18.8161 22.1326 18.6587C22.0566 18.5012 21.9309 18.3766 21.777 18.3062Z" fill="black"/>
</g>
<defs>
<clipPath id="clip0_233_2346">
<rect width="30" height="30" fill="white"/>
</clipPath>
</defs>
</svg>
