<svg width="39" height="39" viewBox="0 0 39 39" fill="none" xmlns="http://www.w3.org/2000/svg">
<g filter="url(#filter0_d_194_632)">
<rect x="2.375" y="0.575195" width="34.3068" height="34.3068" rx="17.1534" fill="#6B5B95" shape-rendering="crispEdges"/>
<path d="M10.6217 20.8228V20.8228C10.3021 20.2691 10.4918 19.5612 11.0454 19.2415L25.0797 11.1388C25.6334 10.8192 26.3413 11.0089 26.6609 11.5625V11.5625M10.6217 20.8228L11.9566 23.1349C12.5186 24.1082 13.7632 24.4417 14.7365 23.8797V23.8797M10.6217 20.8228L26.6609 11.5625M26.6609 11.5625L27.8838 13.6806C28.5076 14.7611 28.1374 16.1427 27.0569 16.7665V16.7665M14.7365 23.8797L13.8964 22.4246M14.7365 23.8797L16.8384 22.6662M16.8384 22.6662L15.2328 19.8852M16.8384 22.6662L18.9403 21.4527M18.9403 21.4527L18.1002 19.9975M18.9403 21.4527L20.9614 20.2858M20.9614 20.2858L19.3558 17.5048M20.9614 20.2858L23.0471 19.0816M23.0471 19.0816L22.207 17.6264M23.0471 19.0816L25.1006 17.896M25.1006 17.896L23.4949 15.1151M25.1006 17.896L27.0569 16.7665M27.0569 16.7665L26.1141 15.1335" stroke="white" stroke-width="0.768063" stroke-linecap="round"/>
</g>
<defs>
<filter id="filter0_d_194_632" x="0.326833" y="0.575195" width="38.403" height="38.403" filterUnits="userSpaceOnUse" color-interpolation-filters="sRGB">
<feFlood flood-opacity="0" result="BackgroundImageFix"/>
<feColorMatrix in="SourceAlpha" type="matrix" values="0 0 0 0 0 0 0 0 0 0 0 0 0 0 0 0 0 0 127 0" result="hardAlpha"/>
<feOffset dy="2.04817"/>
<feGaussianBlur stdDeviation="1.02408"/>
<feComposite in2="hardAlpha" operator="out"/>
<feColorMatrix type="matrix" values="0 0 0 0 0 0 0 0 0 0 0 0 0 0 0 0 0 0 0.25 0"/>
<feBlend mode="normal" in2="BackgroundImageFix" result="effect1_dropShadow_194_632"/>
<feBlend mode="normal" in="SourceGraphic" in2="effect1_dropShadow_194_632" result="shape"/>
</filter>
</defs>
</svg>
