<svg width="190" height="191" viewBox="0 0 190 191" fill="none" xmlns="http://www.w3.org/2000/svg">
<path d="M155 95.5C155 128.361 128.361 155 95.5 155C62.6391 155 36 128.361 36 95.5C36 62.6391 62.6391 36 95.5 36C128.361 36 155 62.6391 155 95.5ZM52.5673 95.5C52.5673 119.211 71.7889 138.433 95.5 138.433C119.211 138.433 138.433 119.211 138.433 95.5C138.433 71.7889 119.211 52.5673 95.5 52.5673C71.7889 52.5673 52.5673 71.7889 52.5673 95.5Z" fill="#01183A"/>
<path d="M91.9998 82.5H98.9998C99.1511 52.5864 98.1201 34.4089 95.4998 1C92.7407 33.4437 91.8754 51.3478 91.9998 82.5Z" fill="#6B5B95" stroke="#0057FF"/>
<path d="M108 91.5115L108 98.5115C137.914 98.6628 156.091 97.6318 189.5 95.0115C157.056 92.2524 139.152 91.3871 108 91.5115Z" fill="#6B5B95" stroke="#0057FF"/>
<path d="M99.0149 108.5L92.0149 108.5C91.8635 138.414 92.8946 156.591 95.5149 190C98.2739 157.556 99.1392 139.652 99.0149 108.5Z" fill="#6B5B95" stroke="#0057FF"/>
<path d="M82.5 98.5149L82.5 91.5149C52.5864 91.3635 34.4089 92.3946 1 95.0149C33.4437 97.7739 51.3478 98.6392 82.5 98.5149Z" fill="#6B5B95" stroke="#0057FF"/>
<path d="M116 95C116 106.598 106.598 116 95 116C83.402 116 74 106.598 74 95C74 83.402 83.402 74 95 74C106.598 74 116 83.402 116 95ZM83.7012 95C83.7012 101.24 88.7598 106.299 95 106.299C101.24 106.299 106.299 101.24 106.299 95C106.299 88.7598 101.24 83.7012 95 83.7012C88.7598 83.7012 83.7012 88.7598 83.7012 95Z" fill="#F2FF61"/>
</svg>
