<svg width="50" height="45" viewBox="0 0 50 45" fill="none" xmlns="http://www.w3.org/2000/svg">
<path d="M25.2146 15.6607C23.778 14.312 23.3382 13.1099 24.1298 12.3182L26.0063 10.4711C27.0031 9.6208 27.9121 9.94332 29.2314 11.2627L38.4965 20.4985C39.9625 22.0524 39.6987 23.3132 38.4965 24.4567L28.6157 34.4547C27.81 35.1326 26.7692 35.1584 25.919 34.6311C25.9186 34.6308 25.9181 34.6305 25.9177 34.6301L24.1596 32.872C24.1593 32.8716 24.159 32.8713 24.1587 32.8709C23.3677 31.6983 24.0419 30.6724 24.4816 30.174L32.041 22.5561C32.0439 22.5532 32.0439 22.5485 32.041 22.5457L25.2146 15.6607Z" fill="black" stroke="white" stroke-width="0.11728"/>
<path d="M11.8679 15.6627C10.4313 14.3139 9.99147 13.1118 10.7831 12.3202L12.6596 10.473C13.6565 9.62276 14.5654 9.94527 15.8848 11.2647L25.1499 20.5004C26.6159 22.0544 26.352 23.3151 25.1499 24.4586L15.2691 34.4567C14.4633 35.1345 13.4225 35.1604 12.5724 34.6331C12.5719 34.6328 12.5714 34.6324 12.571 34.632L10.8129 32.8739C10.8126 32.8736 10.8123 32.8732 10.812 32.8728C10.021 31.7003 10.6952 30.6743 11.135 30.176L18.6943 22.558C18.6972 22.5552 18.6972 22.5505 18.6943 22.5476L11.8679 15.6627Z" stroke="black"/>
</svg>
