<svg width="40" height="40" viewBox="0 0 40 40" fill="none" xmlns="http://www.w3.org/2000/svg">
<g filter="url(#filter0_d_194_638)">
<rect x="2.71777" y="0.80127" width="34.3068" height="34.3068" rx="17.1534" fill="#6B5B95" shape-rendering="crispEdges"/>
<path d="M15.7363 19.3992L15.4576 20.7013C15.3655 20.7486 15.2866 20.8148 15.2077 20.881L13.9614 20.5667L13.3863 21.424L14.0813 22.5598C14.0501 22.6705 14.0252 22.7591 14.0037 22.8682L12.9324 23.5782L13.1073 24.6026L14.3535 24.9168C14.41 25.0126 14.4629 25.0879 14.5291 25.182L14.2504 26.4841L15.0775 27.1019L16.1488 26.3918C16.2434 26.4178 16.3398 26.4541 16.4442 26.4784L17.1393 27.6142L18.113 27.4479L18.3918 26.1458C18.4724 26.0899 18.5628 26.0323 18.6417 25.9661L19.888 26.2804L20.4631 25.4231L19.7681 24.2873C19.7913 24.1885 19.8225 24.0777 19.8457 23.9789L20.917 23.2689L20.7421 22.2445L19.4958 21.9303C19.4509 21.8431 19.3847 21.749 19.3203 21.6651L19.599 20.363L18.7719 19.7452L17.7006 20.4553C17.606 20.4293 17.4998 20.3947 17.4052 20.3687L16.7101 19.2329L15.7363 19.3992ZM16.6606 21.8768C17.4688 21.7388 18.2384 22.3137 18.3836 23.1639C18.5288 24.014 17.9936 24.8117 17.1853 24.9498C16.3771 25.0878 15.6075 24.5129 15.4623 23.6628C15.3171 22.8126 15.8523 22.0149 16.6606 21.8768Z" fill="white"/>
<path d="M20.3939 7.71191L19.6146 9.64407C19.4587 9.69278 19.3184 9.77396 19.1781 9.85514L17.3233 9.04331L16.201 10.2123L16.9804 12.1445C16.9024 12.3069 16.8401 12.4368 16.7777 12.5991L14.9229 13.411V15.0346L16.7777 15.8464C16.8401 16.0088 16.9024 16.1387 16.9804 16.3011L16.201 18.2332L17.3233 19.4023L19.1781 18.5904C19.3184 18.6554 19.4587 18.7366 19.6146 18.8015L20.3939 20.7337H21.9526L22.732 18.8015C22.8723 18.7366 23.0282 18.6716 23.1684 18.5904L25.0233 19.4023L26.1456 18.2332L25.3662 16.3011C25.4286 16.1549 25.5065 15.9926 25.5689 15.8464L27.4237 15.0346V13.411L25.5689 12.5991C25.5221 12.453 25.4442 12.2906 25.3662 12.1445L26.1456 10.2123L25.0233 9.04331L23.1684 9.85514C23.0282 9.7902 22.8723 9.70902 22.732 9.64407L21.9526 7.71191L20.3939 7.71191ZM21.1733 11.7711C22.467 11.7711 23.5114 12.8589 23.5114 14.2066C23.5114 15.5542 22.467 16.642 21.1733 16.642C19.8796 16.642 18.8352 15.5542 18.8352 14.2066C18.8352 12.8589 19.8796 11.7711 21.1733 11.7711Z" fill="white"/>
</g>
<defs>
<filter id="filter0_d_194_638" x="0.669607" y="0.80127" width="38.403" height="38.403" filterUnits="userSpaceOnUse" color-interpolation-filters="sRGB">
<feFlood flood-opacity="0" result="BackgroundImageFix"/>
<feColorMatrix in="SourceAlpha" type="matrix" values="0 0 0 0 0 0 0 0 0 0 0 0 0 0 0 0 0 0 127 0" result="hardAlpha"/>
<feOffset dy="2.04817"/>
<feGaussianBlur stdDeviation="1.02408"/>
<feComposite in2="hardAlpha" operator="out"/>
<feColorMatrix type="matrix" values="0 0 0 0 0 0 0 0 0 0 0 0 0 0 0 0 0 0 0.25 0"/>
<feBlend mode="normal" in2="BackgroundImageFix" result="effect1_dropShadow_194_638"/>
<feBlend mode="normal" in="SourceGraphic" in2="effect1_dropShadow_194_638" result="shape"/>
</filter>
</defs>
</svg>
