<svg width="78" height="78" viewBox="0 0 78 78" fill="none" xmlns="http://www.w3.org/2000/svg">
<g clip-path="url(#clip0_196_1172)">
<g filter="url(#filter0_d_196_1172)">
<path d="M55.8966 55.9905C54.5151 55.6466 53.838 55.6909 52.7209 55.9905L48.4019 58.4359C47.6798 59.0142 47.3336 59.3867 47.1316 60.3921L45.8613 66.2609C45.6163 66.9353 45.1094 67.0265 43.9558 66.9945L34.4286 66.9945C33.6005 67.0319 33.2568 66.6958 32.9042 65.405L32.015 60.3921C31.8169 59.4689 31.5267 59.0333 30.7447 58.4359L26.4257 55.9905C25.342 55.5473 24.6048 55.5442 22.9959 55.9905L18.804 57.3354C17.4943 57.9376 16.915 57.8929 16.2634 56.8464L11.4362 49.1436C10.612 47.6987 11.0055 47.1537 12.1984 46.3315L16.2634 43.0303C17.2037 42.2891 17.4461 41.7147 17.2796 40.3404L17.2796 36.9169C17.2987 35.6767 17.1286 35.1242 16.5174 34.3493L12.1984 30.5591C11.1355 29.7166 10.8627 29.1318 11.6903 27.6247L16.1363 20.2887C16.8425 19.0646 17.7218 19.2698 19.3121 19.6773L22.9959 20.9C24.5392 21.6362 25.3319 21.5383 26.6798 20.9L30.4907 18.6992C31.7807 17.9386 31.9625 17.1085 32.1421 15.5203L33.0313 11.1187C33.2506 10.0649 33.9637 9.98316 35.4449 10.0183L43.8288 10.0183C45.2618 9.90075 45.6669 10.3453 46.1154 11.4855L47.1316 16.6207C47.3729 17.9847 47.8253 18.2541 48.6559 18.6992L52.975 20.9C54.1336 21.6052 54.8883 21.4302 56.2777 20.9L60.3427 19.5551C61.916 18.8137 62.4693 19.4884 63.3914 20.9L67.7104 27.8692C68.2408 29.1199 68.0973 29.7896 66.8212 30.9259L63.3914 33.8603C62.241 34.7779 61.9966 35.4422 61.9939 36.7947L61.9939 40.7072C61.9593 41.7991 62.2551 42.3735 63.3914 43.3971L67.0751 46.4537C68.2221 47.4137 68.2892 48.2132 67.0751 50.244L63.1371 56.7241C62.4085 57.9336 61.7865 58.1498 60.2155 57.58L55.8966 55.9905Z" fill="#ADD0CE"/>
</g>
<path d="M56.6948 37.7247C56.5666 35.5642 55.9976 33.4492 55.0202 31.5004C54.0428 29.5516 52.6761 27.8071 50.9983 26.3667C49.3204 24.9262 47.3642 23.818 45.2414 23.1052C43.1185 22.3924 40.8706 22.089 38.626 22.2124L38.8928 26.7094C40.5239 26.6197 42.1573 26.8402 43.6999 27.3581C45.2425 27.8761 46.664 28.6814 47.8832 29.7281C49.1024 30.7749 50.0955 32.0425 50.8057 33.4586C51.516 34.8747 51.9295 36.4116 52.0226 37.9815L56.6948 37.7247Z" fill="#303030"/>
<path d="M39.18 22.1582C35.2987 22.2428 31.5626 23.5946 28.5845 25.9917C25.6064 28.3889 23.5631 31.6891 22.79 35.3509C22.0168 39.0127 22.5597 42.8188 24.3294 46.1446C26.0992 49.4704 28.9908 52.1186 32.5299 53.6546L34.4536 49.5485C31.8819 48.4323 29.7807 46.508 28.4947 44.0913C27.2087 41.6745 26.8142 38.9088 27.376 36.2479C27.9379 33.587 29.4226 31.1889 31.5866 29.447C33.7507 27.7051 36.4656 26.7229 39.2859 26.6614L39.18 22.1582Z" fill="white"/>
<path d="M32.4476 53.6365C35.2058 54.8577 38.2517 55.3509 41.2732 55.0656C44.2947 54.7804 47.1831 53.727 49.6422 52.0133C52.1013 50.2996 54.0428 47.9874 55.2676 45.3136C56.4924 42.6398 56.9565 39.7006 56.6122 36.7973L51.9626 37.308C52.2127 39.4177 51.8755 41.5535 50.9855 43.4964C50.0955 45.4394 48.6847 47.1196 46.8978 48.3648C45.1108 49.6101 43.012 50.3756 40.8164 50.5828C38.6208 50.7901 36.4074 50.4317 34.4032 49.5444L32.4476 53.6365Z" fill="#545454"/>
<g filter="url(#filter1_d_196_1172)">
<ellipse cx="38.9178" cy="38.0048" rx="7.87584" ry="7.58052" fill="#AAFFEC"/>
</g>
</g>
<defs>
<filter id="filter0_d_196_1172" x="1.52471" y="10" width="75.9506" height="75.9506" filterUnits="userSpaceOnUse" color-interpolation-filters="sRGB">
<feFlood flood-opacity="0" result="BackgroundImageFix"/>
<feColorMatrix in="SourceAlpha" type="matrix" values="0 0 0 0 0 0 0 0 0 0 0 0 0 0 0 0 0 0 127 0" result="hardAlpha"/>
<feOffset dy="9.47529"/>
<feGaussianBlur stdDeviation="4.73764"/>
<feComposite in2="hardAlpha" operator="out"/>
<feColorMatrix type="matrix" values="0 0 0 0 0 0 0 0 0 0 0 0 0 0 0 0 0 0 0.25 0"/>
<feBlend mode="normal" in2="BackgroundImageFix" result="effect1_dropShadow_196_1172"/>
<feBlend mode="normal" in="SourceGraphic" in2="effect1_dropShadow_196_1172" result="shape"/>
</filter>
<filter id="filter1_d_196_1172" x="21.5667" y="30.4243" width="34.7025" height="34.1117" filterUnits="userSpaceOnUse" color-interpolation-filters="sRGB">
<feFlood flood-opacity="0" result="BackgroundImageFix"/>
<feColorMatrix in="SourceAlpha" type="matrix" values="0 0 0 0 0 0 0 0 0 0 0 0 0 0 0 0 0 0 127 0" result="hardAlpha"/>
<feOffset dy="9.47529"/>
<feGaussianBlur stdDeviation="4.73764"/>
<feComposite in2="hardAlpha" operator="out"/>
<feColorMatrix type="matrix" values="0 0 0 0 0 0 0 0 0 0 0 0 0 0 0 0 0 0 0.25 0"/>
<feBlend mode="normal" in2="BackgroundImageFix" result="effect1_dropShadow_196_1172"/>
<feBlend mode="normal" in="SourceGraphic" in2="effect1_dropShadow_196_1172" result="shape"/>
</filter>
<clipPath id="clip0_196_1172">
<rect width="78" height="78" fill="white"/>
</clipPath>
</defs>
</svg>
