<svg width="57" height="238" viewBox="0 0 57 238" fill="none" xmlns="http://www.w3.org/2000/svg">
<path fill-rule="evenodd" clip-rule="evenodd" d="M28.7723 2C10.6001 34.1856 2.91976 54.6484 1 102.5L5.90099 232.5C6.12294 235.182 8.2487 235.997 14.6139 236.5C24.5609 237.279 30.6287 237.164 41.8416 236.5C46.9221 236.401 49.899 236.532 50.5545 230L56 102.5C50.7824 32.0617 41.8455 27.1907 28.7723 2ZM8.62376 232.5C3.72277 111 1.0683 56.5359 28.7723 9.5C52.9661 46.0211 54.3663 114 47.2871 232.5C44.5644 234.5 13.5248 235.5 8.62376 232.5Z" fill="#FFE605"/>
<path d="M28.7723 9.5C1.0683 56.5359 3.72277 111 8.62376 232.5C13.5248 235.5 44.5644 234.5 47.2871 232.5C54.3663 114 52.9661 46.0211 28.7723 9.5Z" fill="#FFE605"/>
<path fill-rule="evenodd" clip-rule="evenodd" d="M28.7723 2C10.6001 34.1856 2.91976 54.6484 1 102.5L5.90099 232.5C6.12294 235.182 8.2487 235.997 14.6139 236.5C24.5609 237.279 30.6287 237.164 41.8416 236.5C46.9221 236.401 49.899 236.532 50.5545 230L56 102.5C50.7824 32.0617 41.8455 27.1907 28.7723 2ZM8.62376 232.5C3.72277 111 1.0683 56.5359 28.7723 9.5C52.9661 46.0211 54.3663 114 47.2871 232.5C44.5644 234.5 13.5248 235.5 8.62376 232.5Z" stroke="black"/>
<path d="M28.7723 9.5C1.0683 56.5359 3.72277 111 8.62376 232.5C13.5248 235.5 44.5644 234.5 47.2871 232.5C54.3663 114 52.9661 46.0211 28.7723 9.5Z" stroke="black"/>
<path d="M22.7506 140.288V139.431C22.7506 137.062 22.9607 135.174 23.381 133.766C23.8162 132.359 24.4465 131.23 25.272 130.38C26.0974 129.516 27.1029 128.729 28.2885 128.018C29.234 127.461 30.0745 126.896 30.8099 126.325C31.5603 125.74 32.1531 125.113 32.5883 124.444C33.0235 123.775 33.2412 123.015 33.2412 122.165C33.2412 121.343 33.031 120.619 32.6108 119.991C32.1906 119.364 31.6128 118.884 30.8774 118.549C30.157 118.201 29.3541 118.027 28.4686 118.027C27.5832 118.027 26.7502 118.215 25.9698 118.591C25.2044 118.967 24.5741 119.504 24.0788 120.2C23.5986 120.883 23.3509 121.712 23.3359 122.688H12.9805C13.0255 119.762 13.7534 117.365 15.1641 115.497C16.5899 113.63 18.4734 112.251 20.8146 111.359C23.1558 110.453 25.7372 110 28.5587 110C31.6503 110 34.3968 110.446 36.798 111.338C39.2143 112.23 41.1128 113.546 42.4935 115.288C43.8743 117.03 44.5646 119.162 44.5646 121.685C44.5646 123.343 44.2645 124.806 43.6641 126.074C43.0638 127.342 42.2234 128.464 41.1428 129.439C40.0773 130.401 38.8241 131.279 37.3833 132.073C36.2577 132.686 35.3198 133.327 34.5694 133.996C33.834 134.665 33.2787 135.432 32.9035 136.295C32.5283 137.146 32.3407 138.191 32.3407 139.431V140.288H22.7506ZM27.7257 154C26.1049 154 24.7167 153.47 23.561 152.411C22.4204 151.352 21.8577 150.07 21.8727 148.565C21.8577 147.088 22.4204 145.827 23.561 144.782C24.7167 143.723 26.1049 143.193 27.7257 143.193C29.2716 143.193 30.6298 143.723 31.8004 144.782C32.971 145.827 33.5638 147.088 33.5788 148.565C33.5638 149.569 33.2787 150.481 32.7234 151.304C32.1831 152.126 31.4702 152.781 30.5848 153.268C29.7143 153.756 28.7613 154 27.7257 154Z" fill="black"/>
</svg>
