<svg width="52" height="238" viewBox="0 0 52 238" fill="none" xmlns="http://www.w3.org/2000/svg">
<path fill-rule="evenodd" clip-rule="evenodd" d="M26.5 2C9.81463 34.1856 2.76269 54.6484 1 102.5L5.5 232.5C5.70379 235.182 7.65562 235.997 13.5 236.5C22.6332 237.279 28.2045 237.164 38.5 236.5C43.1648 236.401 45.8982 236.532 46.5 230L51.5 102.5C46.7093 32.0617 38.5036 27.1907 26.5 2ZM8 232.5C3.5 111 1.06271 56.5359 26.5 9.5C48.7143 46.0211 50 114 43.5 232.5C41 234.5 12.5 235.5 8 232.5Z" fill="#FFE605"/>
<path d="M26.5 9.5C1.06271 56.5359 3.5 111 8 232.5C12.5 235.5 41 234.5 43.5 232.5C50 114 48.7143 46.0211 26.5 9.5Z" fill="#FFE605"/>
<path fill-rule="evenodd" clip-rule="evenodd" d="M26.5 2C9.81463 34.1856 2.76269 54.6484 1 102.5L5.5 232.5C5.70379 235.182 7.65562 235.997 13.5 236.5C22.6332 237.279 28.2045 237.164 38.5 236.5C43.1648 236.401 45.8982 236.532 46.5 230L51.5 102.5C46.7093 32.0617 38.5036 27.1907 26.5 2ZM8 232.5C3.5 111 1.06271 56.5359 26.5 9.5C48.7143 46.0211 50 114 43.5 232.5C41 234.5 12.5 235.5 8 232.5Z" stroke="black"/>
<path d="M26.5 9.5C1.06271 56.5359 3.5 111 8 232.5C12.5 235.5 41 234.5 43.5 232.5C50 114 48.7143 46.0211 26.5 9.5Z" stroke="black"/>
<path d="M20.2081 143.082V142.118C20.2081 139.452 20.4277 137.327 20.8667 135.743C21.3215 134.16 21.98 132.89 22.8425 131.933C23.7049 130.961 24.7555 130.075 25.9943 129.275C26.9822 128.648 27.8603 128.013 28.6287 127.37C29.4127 126.711 30.0321 126.006 30.4868 125.253C30.9416 124.5 31.1689 123.646 31.1689 122.689C31.1689 121.764 30.9494 120.949 30.5103 120.243C30.0713 119.537 29.4676 118.996 28.6992 118.62C27.9465 118.228 27.1076 118.032 26.1825 118.032C25.2573 118.032 24.387 118.244 23.5716 118.667C22.7719 119.091 22.1133 119.694 21.5959 120.478C21.0941 121.247 20.8354 122.18 20.8197 123.277H10C10.047 119.984 10.8076 117.287 12.2815 115.186C13.7712 113.085 15.7391 111.532 18.1853 110.529C20.6315 109.51 23.3286 109 26.2766 109C29.5068 109 32.3763 109.502 34.8852 110.505C37.4098 111.509 39.3934 112.991 40.8361 114.951C42.2787 116.911 43 119.31 43 122.148C43 124.014 42.6864 125.661 42.0592 127.088C41.4319 128.515 40.5538 129.777 39.4248 130.875C38.3115 131.957 37.0021 132.944 35.4968 133.838C34.3207 134.528 33.3407 135.249 32.5567 136.002C31.7883 136.755 31.2081 137.617 30.8161 138.589C30.4241 139.546 30.2281 140.722 30.2281 142.118V143.082H20.2081ZM25.4063 158.512C23.7128 158.512 22.2623 157.916 21.0549 156.724C19.8631 155.532 19.2751 154.09 19.2908 152.396C19.2751 150.734 19.8631 149.315 21.0549 148.139C22.2623 146.947 23.7128 146.351 25.4063 146.351C27.0214 146.351 28.4405 146.947 29.6636 148.139C30.8867 149.315 31.5061 150.734 31.5217 152.396C31.5061 153.525 31.2081 154.552 30.6279 155.478C30.0634 156.403 29.3186 157.14 28.3934 157.689C27.484 158.237 26.4882 158.512 25.4063 158.512Z" fill="black"/>
</svg>
